<?xml version="1.0" encoding="utf-8"?>
<!-- Generator: Adobe Illustrator 18.1.1, SVG Export Plug-In . SVG Version: 6.00 Build 0)  -->
<!DOCTYPE svg PUBLIC "-//W3C//DTD SVG 1.1//EN" "http://www.w3.org/Graphics/SVG/1.1/DTD/svg11.dtd">
<svg version="1.1" id="Layer_1" xmlns="http://www.w3.org/2000/svg" xmlns:xlink="http://www.w3.org/1999/xlink" x="0px" y="0px"
	 viewBox="0 323.9 595.3 518" enable-background="new 0 323.9 595.3 518" xml:space="preserve">
<g id="Layer_1_1_" display="none">
	
		<rect x="156.5" y="305.7" display="inline" opacity="0.5" fill="#CC343B" enable-background="new    " width="13.7" height="209.9"/>
	
		<rect x="313.9" y="305.7" display="inline" opacity="0.5" fill="#CC343B" enable-background="new    " width="13.7" height="209.9"/>
	
		<rect x="77.6" y="305.7" display="inline" opacity="0.5" fill="#CC343B" enable-background="new    " width="13.7" height="209.9"/>
	
		<rect x="235.2" y="305.7" display="inline" opacity="0.5" fill="#CC343B" enable-background="new    " width="13.7" height="209.9"/>
	<path display="inline" fill="#CC343B" d="M349.1,414.3c-2.4,0-4.7-1.2-5.9-3.5c-6.1-10.8-6.1-10.8-13.9-22.4
		c-23.4-35.1-54.2-53.6-91.3-55c-31-1.2-61.6,5.9-91.1,20.6c-3.3,1.8-7.5,0.4-9.2-3.1c-1.8-3.3-0.4-7.5,3.1-9.2
		c31.6-15.9,64.4-23.4,97.8-22.2c41.8,1.6,76.4,22,102.3,61.1c7.9,12,8,12.2,14.3,23.4c2,3.3,0.8,7.5-2.6,9.4
		C351.2,413.9,350.3,414.3,349.1,414.3z"/>
	<path display="inline" fill="#CC343B" d="M349.1,414.3c-2,0-3.7-0.8-5.1-2.2c-2.6-2.7-2.4-7.1,0.4-9.6c5.3-4.9,11.4-15.3,14.3-20.2
		c12.4-21.2,25.9-37.1,42.6-50.1c17.3-13.5,39.7-20.2,65-19.2c27.5,1,55.2,6.9,84.4,17.9c3.5,1.4,5.3,5.3,4.1,8.8
		c-1.4,3.5-5.3,5.3-8.8,4.1c-27.9-10.4-54-15.9-80.1-16.9c-22.2-0.8-41,4.7-56,16.3c-15.3,12-27.7,26.7-39.3,46.1
		c-5.3,8.8-11,17.9-16.9,23.4C352.2,413.7,350.6,414.3,349.1,414.3z"/>
</g>
<g id="Layer_2" display="none">
	<path display="inline" fill="#CC343B" d="M284.9,510.7c-39.5,0-71.7-32.2-71.7-71.7s32.2-71.7,71.7-71.7s71.7,32.2,71.7,71.7
		S324.3,510.7,284.9,510.7 M284.9,380.5c-32.2,0-58.5,26.3-58.5,58.5s26.3,58.5,58.5,58.5c32.2,0,58.5-26.3,58.5-58.5
		S317.1,380.5,284.9,380.5z"/>
	<path display="inline" fill="#CC343B" d="M413.3,439h-13.2c0-63.6-51.6-115.2-115.2-115.2S169.6,375.4,169.6,439h-13.2
		c0-70.9,57.5-128.4,128.4-128.4S413.3,368.1,413.3,439"/>
</g>
<g id="Layer_3">
	<rect x="-0.6" y="328.9" fill="#FFFFFF" width="594.1" height="57.4"/>
	<rect x="-0.6" y="555.9" fill="#FFFFFF" width="594.1" height="57.4"/>
	<rect x="-0.6" y="779.5" fill="#FFFFFF" width="594.1" height="57.4"/>
</g>
</svg>
