<?xml version="1.0" encoding="utf-8"?>
<!-- Generator: Adobe Illustrator 18.1.1, SVG Export Plug-In . SVG Version: 6.00 Build 0)  -->
<!DOCTYPE svg PUBLIC "-//W3C//DTD SVG 1.1//EN" "http://www.w3.org/Graphics/SVG/1.1/DTD/svg11.dtd">
<svg version="1.1" id="Layer_1" xmlns="http://www.w3.org/2000/svg" xmlns:xlink="http://www.w3.org/1999/xlink" x="0px" y="0px"
	 viewBox="0 0 595.3 607" enable-background="new 0 0 595.3 607" xml:space="preserve">
<path fill="#FFFFFF" d="M63.6,70.1c84.6-84.9,219.6-85.7,304.1-1.7c84.4,84,85.3,220.5,1.9,304.6c-83.1,83.8-221.2,84.6-305.1,1.7
	C-19.6,291.6-20,154.1,63.6,70.1z M338.1,342.7c66.4-66.2,66.8-174.7,0.9-242c-66.4-67.8-177.4-68.2-244.5-0.8
	c-66.2,66.5-66.7,175-1,242.2C159.9,409.9,270.4,410.2,338.1,342.7z"/>
<rect x="451" y="330.6" transform="matrix(0.7071 -0.7071 0.7071 0.7071 -200.1434 475.337)" fill="#FFFFFF" width="45.4" height="297.4"/>
</svg>
