<?xml version="1.0" encoding="utf-8"?>
<!-- Generator: Adobe Illustrator 18.1.1, SVG Export Plug-In . SVG Version: 6.00 Build 0)  -->
<!DOCTYPE svg PUBLIC "-//W3C//DTD SVG 1.1//EN" "http://www.w3.org/Graphics/SVG/1.1/DTD/svg11.dtd">
<svg version="1.1" id="Layer_1" xmlns="http://www.w3.org/2000/svg" xmlns:xlink="http://www.w3.org/1999/xlink" x="0px" y="0px"
	 viewBox="0 0 303.2 290.8" enable-background="new 0 0 303.2 290.8" xml:space="preserve">
<rect x="79.7" y="86.7" opacity="0.5" fill="#CC343B" width="7" height="106.9"/>
<rect x="159.9" y="86.7" opacity="0.5" fill="#CC343B" width="7" height="106.9"/>
<rect x="39.5" y="86.7" opacity="0.5" fill="#CC343B" width="7" height="106.9"/>
<rect x="119.8" y="86.7" opacity="0.5" fill="#CC343B" width="7" height="106.9"/>
<path fill="#CC343B" d="M177.8,142c-1.2,0-2.4-0.6-3-1.8c-3.1-5.5-3.1-5.5-7.1-11.4c-11.9-17.9-27.6-27.3-46.5-28
	c-15.8-0.6-31.4,3-46.4,10.5c-1.7,0.9-3.8,0.2-4.7-1.6c-0.9-1.7-0.2-3.8,1.6-4.7c16.1-8.1,32.8-11.9,49.8-11.3
	c21.3,0.8,38.9,11.2,52.1,31.1c4,6.1,4.1,6.2,7.3,11.9c1,1.7,0.4,3.8-1.3,4.8C178.9,141.8,178.4,142,177.8,142z"/>
<path fill="#CC343B" d="M177.8,142c-1,0-1.9-0.4-2.6-1.1c-1.3-1.4-1.2-3.6,0.2-4.9c2.7-2.5,5.8-7.8,7.3-10.3
	c6.3-10.8,13.2-18.9,21.7-25.5c8.8-6.9,20.2-10.3,33.1-9.8c14,0.5,28.1,3.5,43,9.1c1.8,0.7,2.7,2.7,2.1,4.5
	c-0.7,1.8-2.7,2.7-4.5,2.1c-14.2-5.3-27.5-8.1-40.8-8.6c-11.3-0.4-20.9,2.4-28.5,8.3c-7.8,6.1-14.1,13.6-20,23.5
	c-2.7,4.5-5.6,9.1-8.6,11.9C179.4,141.7,178.6,142,177.8,142z"/>
</svg>
