<?xml version="1.0" encoding="utf-8"?>
<!-- Generator: Adobe Illustrator 18.1.1, SVG Export Plug-In . SVG Version: 6.00 Build 0)  -->
<!DOCTYPE svg PUBLIC "-//W3C//DTD SVG 1.1//EN" "http://www.w3.org/Graphics/SVG/1.1/DTD/svg11.dtd">
<svg version="1.1" id="Layer_1" xmlns="http://www.w3.org/2000/svg" xmlns:xlink="http://www.w3.org/1999/xlink" x="0px" y="0px"
	 viewBox="0 0 778.4 560" enable-background="new 0 0 778.4 560" xml:space="preserve">
<g>
	<g>
		<path fill="#FFFFFF" d="M308.8,130.6h-93.6c-32.5,0-58.9,26.4-58.9,58.8v176.1c0,12.5,9,22.7,20,22.7c11.1,0,20-10.2,20-22.7
			V189.4h8.1v166.4V385v152.8c0,12.5,9,22.7,20,22.7c11.1,0,20-10.2,20-22.7V385h34.9v152.8c0,12.5,9,22.7,20,22.7
			c11.1,0,20-10.2,20-22.7V385v-29.2V189.4h8.1v176.1c0,12.5,9,22.7,20,22.7c11.1,0,20-10.2,20-22.7V189.4
			C367.7,156.9,341.4,130.6,308.8,130.6z"/>
	</g>
	<g>
		<path fill="#FFFFFF" d="M262,115.4c30,0,54.3-24.4,54.3-54.4c0-30-24.3-54.4-54.3-54.4C232,6.7,207.7,31,207.7,61
			C207.7,91.1,232,115.4,262,115.4z"/>
	</g>
</g>
<g>
	<g>
		<path fill="#FFFFFF" d="M691.1,324.5h-51.3c-17.8,0-32.2,14.4-32.2,32.2v96.5c0,6.9,4.9,12.4,11,12.4c6.1,0,11-5.6,11-12.4v-96.5
			h4.4v91.1v16v83.7c0,6.9,4.9,12.4,11,12.4c6.1,0,11-5.6,11-12.4v-83.7H675v83.7c0,6.9,4.9,12.4,11,12.4c6.1,0,11-5.6,11-12.4
			v-83.7v-16v-91.1h4.4v96.5c0,6.9,4.9,12.4,11,12.4c6.1,0,11-5.6,11-12.4v-96.5C723.3,338.9,708.9,324.5,691.1,324.5z"/>
	</g>
	<g>
		<path fill="#FFFFFF" d="M665.4,316.2c16.4,0,29.8-13.3,29.8-29.8c0-16.4-13.3-29.8-29.8-29.8c-16.5,0-29.8,13.3-29.8,29.8
			C635.7,302.8,649,316.2,665.4,316.2z"/>
	</g>
</g>
<g>
	<g>
		<path fill="#FFFFFF" d="M104.5,324.5H53.2c-17.8,0-32.2,14.4-32.2,32.2v96.5c0,6.9,4.9,12.4,11,12.4c6.1,0,11-5.6,11-12.4v-96.5
			h4.4v91.1v16v83.7c0,6.9,4.9,12.4,11,12.4c6.1,0,11-5.6,11-12.4v-83.7h19.1v83.7c0,6.9,4.9,12.4,11,12.4c6.1,0,11-5.6,11-12.4
			v-83.7v-16v-91.1h4.4v96.5c0,6.9,4.9,12.4,11,12.4c6.1,0,11-5.6,11-12.4v-96.5C136.8,338.9,122.3,324.5,104.5,324.5z"/>
	</g>
	<g>
		<path fill="#FFFFFF" d="M78.9,316.2c16.4,0,29.8-13.3,29.8-29.8c0-16.4-13.3-29.8-29.8-29.8c-16.5,0-29.8,13.3-29.8,29.8
			C49.1,302.8,62.4,316.2,78.9,316.2z"/>
	</g>
</g>
<g>
	<g>
		<path fill="#FFFFFF" d="M582.7,364.7l-35.4-141.1h0.2c-7.3-25.9-23.5-48.4-51.2-48.4h-79.7c-26,0-41.6,18.2-49.4,43.6l-0.2,0
			l-1.2,4.9c0,0,0,0,0,0l0,0l-35.2,141.1c-1.9,10.6,4.2,20.5,13.5,22.1c9.3,1.7,18.4-5.6,20.3-16.2L401,223.6h5l-34.5,193.6h32.9
			v123.7c0,11.3,8.1,20.5,18.1,20.5c10,0,18.1-9.2,18.1-20.5V417.2h31.6v123.7c0,11.3,8.1,20.5,18.1,20.5c10,0,18.1-9.2,18.1-20.5
			V417.2h32.9l-34.5-193.6h5.4L549,370.7c1.9,10.6,11,17.8,20.3,16.2C578.5,385.2,584.6,375.3,582.7,364.7z"/>
	</g>
	<g>
		<path fill="#FFFFFF" d="M456.4,159c27.2,0,49.1-22,49.1-49.2c0-27.1-22-49.1-49.1-49.1c-27.1,0-49.1,22-49.1,49.1
			C407.3,137,429.3,159,456.4,159z"/>
	</g>
</g>
</svg>
