<?xml version="1.0" encoding="utf-8"?>
<!-- Generator: Adobe Illustrator 18.1.1, SVG Export Plug-In . SVG Version: 6.00 Build 0)  -->
<!DOCTYPE svg PUBLIC "-//W3C//DTD SVG 1.1//EN" "http://www.w3.org/Graphics/SVG/1.1/DTD/svg11.dtd">
<svg version="1.1" id="Layer_1" xmlns="http://www.w3.org/2000/svg" xmlns:xlink="http://www.w3.org/1999/xlink" x="0px" y="0px"
	 viewBox="0 0 470 339" enable-background="new 0 0 470 339" xml:space="preserve">
<path fill="#DDDDDD" d="M76.4,96.4"/>
<path fill="#DDDDDD" d="M77.5,100.5l-1.3,0.3L76,99.7l-0.7-0.1v-0.3l-0.7,0.1l0.2-0.9l-1.1-0.3L73,96.9L72,97l-0.4,0.5l-0.1,1
	L71.2,99l-1.1,0.3L70,98.7l-0.4-0.5l-0.9,0.2L68,99.5l-1.3-0.1L66,99.9l-1,0.7l-1.3,0.4l-0.5,0.6l-1.1-0.1l-0.1-0.9l-1.2-0.1
	l-1.3-0.6l-1.1-0.7H56l-2.9-0.7L51.4,98l-0.9,0.2l-0.7,0.9l-1.2-0.6L48.1,98H47l-1.1,0.4l-0.8-0.8l-1.7-0.1h-1.6l-0.6-0.9L39.4,97
	l-1.3-1l-0.8,0.4L35.6,97l-0.7,0.2l-1.5,1l-1.3-0.1l-0.4,0.8l-0.2,0.6l-1.2,1l-1.8,1.1l-1.3,0.2l-0.2,0.7l1.4,1.2l0.4,0.8l-0.2,0.7
	l1.6,0.3l1.8,0.2l0.8,1.2l-0.4,0.9l-1.7-0.4l-0.7-0.8l-1.2-0.5l-1.1,0.7l-1.1,0.9l-0.7,0.1l-1.1,0.4l0.3,0.7l0.7,0.3l0.8,0.8
	l-0.3,0.8l1.7,0.2l1.9-0.4l0.6,0.7l0.6-0.7l1.5-0.6l0.3,0.9l-0.6,1.2l0.8,0.4l-0.6,0.4h-0.8l-0.4,0.6l-1.3,0.1l-0.5-0.7l-0.5-0.2
	l-0.3,0.7l-0.4,0.4l-0.3,0.3l0.4,0.5l-0.4,0.6l-0.6-0.1l-0.3,0.5l-0.2,0.3l-0.9,0.4l0.6,0.6l0.2,0.4l0.5,0.5c0,0,0.9-0.2,0.8,0
	c-0.1,0.2-0.1,0.7-0.1,0.7l0.2,0.4c0,0,0.3,0.1,0.3,0.4c0,0.3,0.5,0.7,0.5,0.7l0.7,0.4l0.8-0.3l1-0.4l0.4,0.7l-0.8,0.5
	c0,0-0.6,0.7-0.4,0.7c0.2,0,1.1-0.1,1.1-0.1s0.6,0,0.6,0.2c0,0.2,0.7,0.5,0.7,0.5L34,122l0.8-0.1h0.9l-0.1,0.6l0.9,0.5l0.3,0.6
	l-0.3,0.4l-0.7,0.6l0.1,0.8l-0.8,0.5c0,0-0.8-0.3-0.7,0c0.1,0.3,0.1,0.9,0.1,0.9l-0.5,0.2l-0.5,0.1l-0.5,0.5l-0.2,0.4l-0.9,0.2
	l-0.8,0.4l-0.1,0.5l-0.4,0.7l-0.7,0.2l-0.7,0.3l0.2,0.6l0.6-0.2l1.3-0.1l0.9-0.9l0.7-0.4l0.8-0.6l0.4-0.7l0.4,0.2H35l0.2-0.8
	l0.6-0.4l0.2,0.5l0.7-0.2l0.7-0.8l0.7-0.5l0.7-0.4l0.7-0.4l-0.4-1h0.8l0.5-0.6l0.4-0.6l0.4,0.2l0.5-0.5l0.1-1.2l0.9,0.1l-0.4-1.3
	l0.7-0.5l1-0.1l0.4-0.9c0,0,0.5,0.3,0.4,0.5c0,0.2-0.3,0.9-0.3,1.1c0,0.3,0.1,0.7,0.1,0.7l0.7,0.1l0.6-0.4l0.8-0.5l0.9-0.5l0.5-0.6
	l0.6-0.6l0.6-0.1l0.5-0.2l0.2-0.5l0.7,1.4l0.9,0.6l0.7-0.2l1.1-0.1l0.9,0.7l1.3,0.4h0.6l0.5-0.3l1.3,0.2l0.7,0.1l0.5,0.9l0.4,0.5
	l0.7,0.3l0.9-0.1c0,0,0.1,0.1,0.1,0.3c0,0.2,0.2,0.3,0.2,0.6c0,0.3,0,0.5,0,0.5v0.5c0,0,0.5,0.1,0.7,0.3c0.1,0.2,0.7,0.7,0.7,0.7
	l0.9,0.1l0.5-0.3c0,0,0.1,0.3,0.2,0.6c0.1,0.3,0,0.7,0,0.7l0.1,0.3l0.2,0.3l0.3-0.1l0.9,0.1c0,0,1.1,0.3,0.7,0.7
	c-0.3,0.4-0.2,0.5-0.4,0.7c-0.2,0.2-0.2,0.2-0.2,0.2l0.8,0.1l0.7,0.1c0,0,0.4,0.3,0.3,0.5c-0.1,0.2-0.1,0.2-0.1,0.2l0,0
	c0,0,0.5,0.2,0.6,0.4c0.1,0.2,0.5,0.3,0.5,0.3s0-0.2,0.1,0.4c0.1,0.6,0.3,0.9,0.3,0.9l0.7,0.1c0,0,0.6-0.4,0.6-0.2
	c0,0.2,0,0.3-0.1,0.8c-0.1,0.5-0.1,0.6-0.1,0.9c0.1,0.3,0.5,0.5,0.5,0.5l0.4,0.1l0.7,0.3v0.4c0,0-0.4,0.6,0,0.7
	c0.4,0.2,1.3,0.6,1.3,0.6s-0.1,0.7-0.2,0.9c-0.1,0.2-0.6,0.3-0.7,0.7c-0.1,0.4-0.3,0.9-0.3,0.9s-1.1-0.4-1,0
	c0.2,0.4,1.1,0.9,1.3,0.9c0.2,0,0.6,0.1,0.6,0.1l0.4,0.3l0.4,0.4h1.1l0.4-0.4c0,0,1.4,0.6,1.3,0.7c-0.1,0.2-0.6,1.2-0.6,1.2
	s-0.1,0.6,0.2,0.8c0.2,0.2,1.4,0.7,1.4,0.7s0.6,0,0.4,0.3c-0.2,0.4-0.2,0.6-0.4,0.7c-0.2,0.1,0.8,2.1,0.8,2.1l-1.2,1.1
	c0,0-0.9-0.5-0.7,1.2c0.3,1.7-0.4,1.1,0.3,1.7c0.7,0.7,0.8,1.5,0.8,1.5s0.4,0.9,0.1,1.5c-0.3,0.5,0.3-0.4-0.3,0.5
	c-0.5,0.9-1.2,0.7-0.8,1.6c0.4,0.9,1.7,2.1,1.7,2.1c0.3,1.1,0.1,1.2,0.3,2c0.1,0.8,0.1,0.9,0.1,1.3s0.1,0.3,0.3,0.9
	c0.1,0.7,0.5,0.5,0.9,1.3c0.4,0.8,0.4,0.8,0.4,0.8s1.2,0.9,1.3,1.3c0.1,0.4,0.1,0.4,0.5,0.9c0.4,0.5,1.1,0.3,1.2,1.2
	c0.1,0.9,0.1,0.4,0.4,1.5c0.3,1.1,0.3,1.1,0.3,1.1s0.1-0.7,0.4,0.5c0.3,1.2,0.7,0.8,1.1,1.7c0.4,0.9-0.1-0.3,0.4,0.9
	c0.5,1.2,2.1,1.3,2.1,1.3c0.5,0.5,0.7-0.8,0.5,0.5c-0.1,1.3-0.5,1.2-0.1,1.3c0.4,0.1,0.4-0.3,0.5,0.8c0.1,1.1,0.7,0.9,0.7,1.9
	c0,0.9,2.5,2.8,2.5,2.8c0.3,0.5,0.4-0.9,0.4-0.9l-0.5-1.6l-0.5-0.8l-0.4-0.9c0,0-0.3-1.2-0.4-1.6c-0.1-0.4-0.4-0.9-0.4-0.9l-0.5-2
	l-0.1-0.9c0,0-0.1-0.8,0.5,0c0.7,0.8,2,0.4,2,1.7c0,1.3,0.1,1.1,0.3,2c0.1,0.9,0.8,0.7,0.9,1.1c0.1,0.4,0.8,0.5,1.1,1.1
	c0.3,0.5,0.9,1.2,0.9,1.2l0.7,0.9c0,0,0.7,0.7,0.5,1.1c-0.1,0.4,0,0.4,0,0.9c0,0.5,0.4,0.5,0.5,0.9c0.1,0.4,0.7,0.3,1.2,1.5
	c0.5,1.2,2,1.7,2,1.7l-2,1.7c0,0-1.1,1.3,0,1.5c1.1,0.1,3.5,1.1,3.5,1.1l0.1,0.7c0,0,1.3,1.3,2.3,1.7c0.9,0.4,2.4,0.7,2.4,0.7
	s1.6-0.1,1.7,0.5c0.1,0.7,0.3,1.1,1.1,1.1c0.8,0,2.7,0,2.7,0l0.5-0.4c0,0,1.5,0.4,1.5,0.8c0,0.4-0.5,1.1,0.3,1.5
	c0.8,0.4,1.6,0.7,1.6,0.7l1.9,0.5c0,0,0.4,0.4,0.4,1.1c0,0.7,2.3,0,2.3,0s1.6,0.4,1.2,1.2c-0.4,0.8-0.1,0.7-0.3,1.5
	c-0.1,0.8-0.4,0-0.1,0.8c0.3,0.8,0.5,0.9,1.2,1.2c0.7,0.3,2.3,0.3,2.3,0.3s-0.7,0.3,0.4,0.8c1.1,0.5,2.7,1.1,2.7,1.1
	s-0.3,0.1-0.1,0.7c0.1,0.5,1.2,0.8,1.2,0.8l0.1-1.2l0.7-0.5l0.9-0.7l1.1-0.4c0,0,0.5-1.1-0.4-0.7c-0.9,0.4,0-0.1-0.9,0.4
	c-0.9,0.5-2.3,0.5-2.3,0.5l-1.7-0.1l0.1-1.5l0.1-1.9l0.1-1.6l-0.4-1.7l-0.8-2c0,0-0.5-0.3-0.9-0.4c-0.4-0.1-1.7-0.7-1.7-0.7
	s-0.5,0.3-1.2,0.3c-0.7,0-0.7,0-0.7,0l-0.8-0.5c0,0-0.5-0.5,0-0.7c0.5-0.1,0.7-1.2,0.7-1.2l0.1-0.7c0,0,0.4,0,0.5-0.8
	c0.1-0.8,0-2.5,0-2.5L121,188l0.1-1.2c0,0-0.5-1.2-1.2-0.9c-0.7,0.3-0.5,0-1.2,0.4c-0.7,0.4-1.2,0.7-1.2,0.7s-0.9,1.5-0.9,2
	c0,0.5,0.3-0.1,0,0.5c-0.3,0.7,0.7,0.5-0.3,0.7c-0.9,0.1-0.5,0.1-1.5,0.3c-0.9,0.1-0.9,0.3-1.5,0.4c-0.5,0.1-1.2-0.1-1.2-0.1
	s0-0.9-0.9-1.3c-0.9-0.4-1.9-2-1.9-2l-0.7-2.1l0.1-1.9l-0.5-2.8l0.5-2.1c0,0,0.3-0.5,0.7-0.9c0.4-0.4,0.3-2,0.3-2l0.9-0.7
	c0,0,2-0.4,2.4-0.4c0.4,0,0.4,0,0.4,0l2.1-0.5c0.8,0.1,3.2,0.1,3.2,0.1l0.5-0.8l0.7-0.9c0,0-0.5-0.8,0.5-0.1
	c1.1,0.7,0.9,0.3,1.6,0.7c0.7,0.4,0.8-0.1,1.5,0.5c0.7,0.7,0.3,0,0.7,0.7c0.4,0.7-0.3-0.5,0.4,0.7c0.7,1.2,0,0.8,0.7,1.2
	c0.7,0.4,1.1-0.1,1.5,0.8c0.4,0.9,0-0.8,0.4,0.9c0.4,1.7-0.1,0.9,0.4,1.7c0.5,0.8,0.5,0.8,0.5,0.8l0.7,0.1c0,0,0.8,0.1,1.1-0.3
	c0.3-0.4,0-1.6,0.1-2.3c0.1-0.7-0.5-2.1-0.5-2.1s0-0.1-0.1-0.5c-0.1-0.4-1.1-0.8-1.2-2.1c-0.1-1.3,0.4-2.1,0.4-2.1s0.4-0.1,0.8-0.4
	c0.4-0.3,1.1-1.1,1.1-1.1l0.8-0.3l0.5-0.8l1.5-1.5l1.2-1.2l0.1-0.8c0,0,0-0.4,0-0.8c0-0.4-0.1-1.1-0.1-1.1s0.7,1.6,0.1,0.7
	c-0.5-0.9-0.5-1.6-0.5-2c0-0.4-0.8-2.3-0.8-2.3l0.5-0.5c0,0,0.7-1.1,1.1,0.1c0.4,1.2,0.4,1.2,0.4,1.2l3.1-1.9c0,0,0.7-2,1.1-2.1
	c0.4-0.1,1.1-1.5,1.1-1.5l-0.3-1.2l0.4-1.1l0.8-0.5l0.8-0.3c0,0-0.3-0.8,0.9-0.5c1.2,0.3,1.6,0.3,2,0.3s-0.3-0.1,0.4,0
	c0.7,0.1,1.5,0.1,1.5,0.1l1.3-0.7c0,0,0.3-0.9,0.5-1.3c0.3-0.4,0.3-1.9,0.3-1.9s-0.1-0.5-0.7-1.3c-0.5-0.8-0.9-1.7-0.9-1.7
	s-0.4-1.7,0-2.3c0.4-0.5,0.7-1.3,0.7-1.3l2-0.5c0,0,0.5-1.1,1.6-1.3c1.1-0.3,0-0.4,1.1-0.3c1.1,0.1,1.2,0.1,1.6,0.1
	c0.4,0,0.9-0.1,0.9-0.1s1.6-1.6,0.5,0.4c-1.1,2-0.7,0.4-1.1,2c-0.4,1.6-0.7,1.1-0.4,1.6c0.3,0.5,1.5,0.5,1.5,0.5l0.9-0.5l1.3-0.3
	c1.5,2,2.1,2.1,2.1,2.1l1.2-0.3l0.7-0.1l0.5-0.4c0.3-0.4,0.3-1.5,0.3-1.5s-0.1-0.5-1.3-0.5c-1.2,0-1.2,0-1.2,0l-0.8-0.8
	c0,0,0-0.7-0.4-0.9c-0.4-0.3-0.9-0.5-0.9-0.5l-0.5-0.5l0.4-1.3l0.5-0.4l-0.9-1.1l-0.3-0.8l0.8-0.5l-0.7-3.1l-2.1-2l-2-0.8l-2.4-2.5
	c0,0,0.4-2.1-0.1-2.5c-0.5-0.4-2.3-1.7-2.3-1.7l-0.5-2l0.3-2.1c0,0-1.2,1.7-1.6,2.4c-0.4,0.7-0.3,0.9-0.8,1.7
	c-0.5,0.8-0.8,1.5-0.8,1.5l-1.3-0.7c0,0-1.2-0.7-1.5-1.1c-0.3-0.4-0.8-1.2-0.8-1.2V118c0,0-0.8-0.1-1.7-0.5
	c-0.9-0.4-0.9-0.4-0.9-0.4l-0.9-1.5c0,0,0-0.5-0.7-0.3c-0.7,0.3-1.9,0.3-1.9,0.3h-2.1c-0.7,0.5-0.9,0.1-1.1,1.3
	c-0.1,1.2-0.1,1.1-0.1,1.9c0,0.8,0.7-0.1,0,0.8c-0.7,0.9-0.5-0.5-0.7,0.9c-0.1,1.5-0.5,0.8-0.1,2c0.4,1.2,0.8,1.9,0.8,1.9
	s0.4-0.1,0.9,0.8c0.5,0.9,0.4,0.1,0.5,0.9c0.1,0.8,0.8,0.8,0,1.3c-0.8,0.5-0.5,0.7-1.3,0.8c-0.8,0.1,0.1-0.7-0.8,0.1
	c-0.9,0.8-1.3,0.5-0.8,1.5c0.5,0.9,0-0.1,0.5,0.9c0.5,1.1,1.2-0.3,0.5,1.1c-0.7,1.3-0.4,0.5-0.7,1.3c-0.3,0.8,0.3,0-0.3,0.8
	c-0.5,0.8,0.9,0.7-0.5,0.8c-1.5,0.1-1.9,0.4-2.1,0c-0.3-0.4-0.4-1.3-0.4-1.3l-0.7-2.3l-0.4-0.9c-2.4-1.3-2.1-1.5-2.9-1.6
	c-0.8-0.1,0.7,0-0.8-0.1c-1.5-0.1-2-0.8-3.2-1.2c-1.2-0.4-1.5-0.7-1.9-1.1c-0.4-0.4-0.7-0.5-0.8-1.1c-0.1-0.5-0.7-0.8-1.9-1.3
	c-1.2-0.5,0,0-1.2-0.5c-1.2-0.5-1.5-0.4-1.6-1.3c-0.1-0.9-0.3-2-0.3-2s0.9-0.7,1.6-1.5c0.7-0.8,0.4-0.9,1.1-1.3
	c0.7-0.4,1.3-0.5,1.7-1.1c0.4-0.5,0.5-1.2,0.9-1.3c0.4-0.1,0.8-0.3,1.3-0.7c0.5-0.4,0.9-0.9,0.9-0.9l0.9-1.1l0.7-0.1
	c0,0,0.8-0.1,1.2-0.7c0.4-0.5,1.2-2,1.2-2l0.9-0.4c0,0,0.9-0.1,1.3-0.4c0.4-0.3,1.7-1.7,2.1-1.7c0.4,0,1.3-0.8,1.3-0.8l0.1-1.1
	c0,0-0.3-0.3-0.5-0.8c-0.3-0.5-0.3,0.1-0.8-1.5c-0.5-1.6-0.7-2.8-1.5-2.9c-0.8-0.1,0.4-0.5-0.8-0.1c-1.2,0.4-0.1-0.4-1.2,0.4
	c-1.1,0.8-0.3-0.5-1.1,0.8c-0.8,1.3-0.5,0-0.8,1.3s-0.7,2.1-0.7,2.1s-0.5,0.8-0.9,0.8c-0.4,0-1.2-0.5-1.2-0.5l-0.7-1.5l0.3-1.2
	l-0.1-0.9c-1.3,1.3-0.7,0.9-1.3,1.3c-0.7,0.4,0.4,1.2-0.7,0.4c-1.1-0.8-1.6-1.3-1.6-1.3l0.1-1.7c0,0,2,2.7,0.5-0.7
	c-1.5-3.3-2.4-2.8-2.4-2.8s-1.1,0.1-1.6-0.1c-0.5-0.3-0.5-0.3-0.5-0.3s0.5-1.3-0.7,0c-1.2,1.3-1.2,0.4-1.2,1.3
	c0,0.9,0.1,0.9,0.5,2.1c0.4,1.2-1.1,0,0.4,1.2c1.5,1.2,1.6-0.3,1.5,1.2c-0.1,1.5,0.4,0.5-0.1,1.5c-0.5,0.9-0.5,0.9-0.5,0.9
	s-0.3,0.5-0.7,0.5c-0.4,0,0.4,0-0.4,0s-0.5-1.1-1.5-1.5c-0.9-0.4-0.1-1.1-1.6-0.1c-1.5,0.9-1.5,0.9-1.5,0.9s0.7,0.5-0.1,0.5
	c-0.8,0-0.7,0-1.3-0.3c-0.7-0.3-1.1-0.5-1.6-0.5c-0.5,0,0.5,0-1.2,0c-1.7,0-2.1-0.5-2.1-0.5l-0.5-1.5c-1.6,0.1-0.9-0.9-1.6,0.1
	c-0.7,1.1-0.3,0.5-0.7,1.1c-0.4,0.5-0.1-1.5-0.4,0.5c-0.3,2,0.1,1.2-0.3,2c-0.4,0.8,0,0.5-0.5,1.3c-0.5,0.8-0.5,0.8-0.5,0.8
	l-0.7-1.5l-0.1-1.1c-0.4-0.3-0.3,0-1.1-0.3c-0.8-0.3,0.5-0.4-1.7-0.4c-2.3,0-2.3,0-2.3,0s2,0.7-1.1,0c-3.1-0.7-1.5-1.2-1.5-1.2
	s-0.7-0.8-1.2-0.9c-0.5-0.1-0.1-0.4-1.1-0.4c-0.9,0-0.1-0.4-0.9,0c-0.8,0.4-0.1,0.5-0.8,0.4c-0.7-0.1,0.8,0.4-0.7-0.1
	c-1.5-0.5-2.5-1.3-2.8-1.7c-0.3-0.4,0.3-0.8-0.3-0.4C78.7,100.2,77.5,100.5,77.5,100.5z"/>
<path fill="#DDDDDD" d="M97.9,101.3l-0.8,0.3l-0.4,0.2c0,0,0.1,0.1-0.1,0.5c-0.2,0.4-1.1,0.5-1.1,0.5l-2.1-0.5l-1.5,0.1l-1.4-0.7
	l-2.3-0.7l-0.7-0.9l0.1-0.7c0,0,0.3-0.3,0.6-0.3c0.3,0,2.5,0,2.5,0l0.8-0.1l0.5-1.2l-0.3-0.4c0,0-0.4,0-1.3,0c-0.9,0-1.3,0-1.9,0.1
	c-0.6,0.1-0.5,0.2-1.1,0.1c-0.6-0.1,0.1-0.2-0.6-0.1c-0.7,0.1-1.8-0.4-1.8-0.4s-1-0.9-1.3-0.9c-0.3,0,0.6,0-0.3,0
	c-0.9,0,0.2,0.1-0.9,0c-1.1-0.1-0.1-0.2-1.1-0.1c-1,0.1,0.2,0.3-1,0.1C79.1,96,78,94.8,78,94.8L77.7,93l0.7-1.6l0.4-1.1
	c0,0,0.5-0.1,0.8-0.2c0.3-0.1,0.8-0.3,1.1-0.5c0.3-0.2-0.2-0.2,0.3-0.2c0.5,0,0.3-0.3,0.9,0c0.6,0.3,1.3,0.2,1.7,0.5
	c0.4,0.3,1.3,0.7,1.3,0.7l0.8-0.1l0.6-0.2l0.5-0.3c0,0,0.2-0.1,0.6-0.1c0.4,0-0.1,0,0.4,0c0.5,0,0.5-1.4,0.5,0c0,1.4,0,0.9,0,1.4
	c0,0.5,0,0.5,0,0.5l0.4,0.5l1.4,0.5c0,0,0.2-0.6,0.6-0.7c0.4-0.1,0.1-0.4,0.4-0.1c0.3,0.3,0.5-0.4,0.3,0.3C91.3,93,91.3,93,91.3,93
	s-0.2,0.2,0.2,0.7c0.4,0.5,1.4,0.6,1.4,0.6l0.3-0.8l-0.4-0.6l0.4-0.4c0,0,0.7-0.1,0.9,0.3c0.2,0.4,0.2,0.4,0.2,0.4l0,0l0.4,0.5
	l0.6-0.2l0.4-0.9c0,0,0,0,0.5,0s0.6-0.6,0.9,0.2c0.3,0.8,0.9-0.4,0.3,0.8c-0.6,1.2-0.8,0.3-0.6,1.2c0.2,0.9,0.9,1.1,0.9,1.1l1.2-0.2
	l0.5-0.2L99,94.3l-0.3-0.5l-0.5-0.4l-0.5-0.8c0.5-0.3,0-0.2,0.5-0.3c0.5-0.1-0.1-1.2,0.5-0.1c0.6,1.1,0.1,0.4,0.6,1.1
	c0.5,0.7,0.2,0.2,0.5,0.7c0.3,0.5,0.9,0.6,0.9,0.6c-0.1,0.9,0,0.2-0.1,0.9c-0.1,0.7-0.1,0.7-0.1,0.7s0.3-0.4,0.6,0.2
	c0.3,0.6-0.1,0.1,0.3,0.6c0.4,0.5,1.1,1.1,1.1,1.1s0.2-0.1,0.5,0.1c0.3,0.2,2,0.7,2,0.7l0.9,0.6c0,0,0.6,0.7,0.2,0.9
	c-0.4,0.2,0.3-0.1-0.4,0.2c-0.7,0.3-0.7,0.3-0.7,0.3s0.6-0.5,0,0c-0.6,0.5-1,1.6-1,1.6c-1,0-0.8,0-1.4-0.2c-0.6-0.2-1.4-0.4-2-0.4
	c-0.6,0-0.7-0.8-0.7-0.8l-0.3-0.8c0,0-0.1-0.2-0.5,0.1c-0.4,0.3,0.8,0-0.4,0.3c-1.2,0.3-1.2,0.3-1.2,0.3"/>
<path fill="#DDDDDD" d="M131.9,88.9l-0.8,0.4l-0.7,0.5l-1.6-0.3l-1.6-0.1c0,0-0.1-0.5-0.9-0.4c-0.8,0.1-1.7,0.3-2.1,0.5
	c-0.4,0.3-0.7,0.4-1.1,0.5c-0.4,0.1-0.9,0-1.3,0.3c-0.4,0.3-0.1-0.9-0.4,0.3c-0.3,1.2,0.3,0.5-0.3,1.2c-0.5,0.7-0.5,0.5-1.1,0.8
	c-0.5,0.3-0.1-0.7-0.5,0.3c-0.4,0.9-0.5,0.3-0.4,0.9c0.1,0.7,0.5,0.1,0.7,0.9c0.1,0.8-0.8-0.3,0.1,0.8c0.9,1.1,1.3,0.8,1.6,1.2
	s-0.3-0.5,0.3,0.4c0.5,0.9-0.3,0.5,0.5,0.9c0.8,0.4,0.7,0.4,1.3,0.5c0.7,0.1,2.4,0,2.4,0l2.4-0.7c0,0,0.4,0.3,0.7,0.7
	c0.3,0.4,1.5,0.3,1.5,0.3l2.8-0.9c0,0,0.5,0,0.7,0.5c0.1,0.5,0.7,0.8,0.7,0.8h0.7l0.8,0.3l0.7,0.3c0,0,0.4-0.3,0.5,0.3
	c0.1,0.5,0.1,0.5,0.1,0.5s-0.4,0.3-0.4,0.7c0,0.4,1.5,0.7,1.5,0.7s0.9,0,1.1,0.3c0.1,0.3,0.5-0.8,0.1,0.3s-0.4,1.1-0.4,1.1l-0.1,0.7
	c-0.3,1.2-0.7,0.4-0.3,1.2c0.4,0.8,1.7,0.1,0.4,0.8c-1.3,0.7-1.3,0.8-1.6,1.2c-0.3,0.4-0.9-0.3-0.3,0.4c0.7,0.7,1.3,0.7,1.3,0.7
	c-0.4,0.7-0.5,0.8-1.1,1.1c-0.5,0.3,0.5,0.1-0.5,0.3c-1.1,0.1-2.1,0-2.5,0.3c-0.4,0.3-0.4,0.3-0.4,0.3s0,0.3-0.3,0.7
	s-0.3,0.4-0.3,0.4s-0.5-0.1,0.1,0.7s1.5,0.9,1.5,0.9l0.9-0.3l2-0.3l0.9-0.1c0,0,1.3-1.1,1.1-0.4c-0.3,0.7-0.4,0.8-0.4,1.2
	c0,0.4-0.1,0.5,0.7,0.9c0.8,0.4,1.3,0.1,1.3,0.5c0,0.4-0.3-0.1,0,0.4c0.3,0.5-0.8,0.5,0.3,0.5c1.1,0,2.3,0,2.3,0
	c0.8-0.4,3.5-0.4,3.5-0.4s-1.9-1.2-2.4-1.2c-0.5,0-0.8-0.4-1.3-0.4c-0.5,0,0.3-0.5,0.3-0.5l0.7-0.4l0.7-0.5c0,0,0.4-0.3,0.8-0.1
	c0.4,0.1,1.6-0.1,1.5,0.3c-0.1,0.4,0.5,0.4,0.5,0.4s2.7-1.2,1.6-1.1c-1.1,0.1-1.9,0-1.9,0s0-1.5-0.8-1.5c-0.8,0-1.7,0.1-1.7,0.1
	s-0.3-0.1-0.7-0.1c-0.4,0-0.5-0.5-0.5-0.5s0.9-0.4,0.9-0.8c0-0.4,1.1-1.1,1.1-1.1c0.7,0.7-0.4,0,0.7,0.7c1.1,0.7,1.5,0.4,2,0.8
	c0.5,0.4,0,0.1,0.5,0.4c0.5,0.3,0.5,0.3,0.5,0.3l1.9-0.3l0.1-0.9l1.2-0.5l0.5-0.9l-0.4-0.5l-0.1-0.8c-1.1-0.1-1.2-0.3-2.1,0.1
	c-0.9,0.4-2,0.5-2,0.5l-0.4-0.8l0.4-0.8c0,0,0-1.5-0.8-0.9c-0.8,0.5-0.8,0.5-0.8,0.5l-1.1-0.5L146,103l0.3-1.1l0.5-0.8l-0.4-1.7
	l-0.1-0.5l-0.8-0.5l-0.4-0.5c0,0,0.1-0.3-0.5-0.4c-0.7-0.1-0.7-0.1-0.7-0.1l-0.8-0.4c0,0-0.1,0-0.5-0.1c-0.4-0.1-1.2-0.5-1.2-0.5
	l-0.3-0.8c-0.4-0.3-1.3-0.8-1.3-0.8s0.4-0.1-0.5-0.4c-0.9-0.3-0.8-0.3-1.5,0c-0.7,0.3-0.7,0.3-0.7,0.3l0.1-1.1l0.5-0.8
	c-1.2-0.1,0.1-0.3-1.2-0.1c-1.3,0.1-0.9,0-1.9,0.1c-0.9,0.1-0.9,0.1-0.9,0.1l-0.3-1.5l0.9-0.9l-0.1-0.7l-0.5-0.1L131.9,88.9z"/>
<path fill="#DDDDDD" d="M153.2,68.7c0,0-1.2,0.3-1.5,0.7c-0.3,0.4-0.3,0.4-0.3,0.4l-0.9,1.6c0,0-0.9,0.3-1.3,0.1
	c-0.4-0.1,0.9-0.4-0.4-0.1c-1.3,0.3-0.5,0.1-1.3,0.3c-0.8,0.1-0.8,0.1-0.8,0.1l-0.4,0.5v0.5c-0.1,0.4,0.7,0.4-0.1,0.4
	c-0.8,0,0.1-0.4-0.8,0c-0.9,0.4-0.9,0.4-0.9,0.4s0.5-1.2,0,0c-0.5,1.2,0.4,0.4-0.5,1.2c-0.9,0.8-0.9,0.8-0.9,0.8s0.4,0.8-0.4,0.5
	c-0.8-0.3,0,0-0.8-0.3c-0.8-0.3-0.8-0.3-0.8-0.3s1.1-1.1,0,0s-1.1,1.1-1.1,1.1s-0.1,0.1-0.4,0.5c-0.3,0.4,0.1-0.3-0.3,0.4
	c-0.4,0.7-0.4,0.7-0.4,0.7l0,0c0,0,0.1,0.3-0.8,0.3c-0.9,0-1.9-1.3-1.5,0.3c0.4,1.6,0.7,1.1,0.4,1.6c-0.3,0.5-0.5,1.1-0.5,1.1
	c-1.3,0.1-1.7-0.3-2.1-0.3c-0.4,0,0.1-0.5-0.4,0c-0.5,0.5-0.5-0.3-0.5,0.5c0,0.8-0.1,0.3,0,0.8c0.1,0.5,0.4-0.7,0.1,0.5
	c-0.3,1.2-0.3,1.2-0.3,1.2s0.9,0.1,0,0c-0.9-0.1-0.9,0.3-1.5,0.1c-0.5-0.1-1.5-0.5-1.5-0.5l-0.5-0.1c-0.9,0,0.1-0.1-0.9,0
	c-1.1,0.1-1.2,0.1-2.1-0.1c-0.9-0.3-0.9-0.3-0.9-0.3s3.6-0.4,0,0c-3.6,0.4-3.6,0.4-3.6,0.4l0,0l-0.5-0.8l-0.1-0.8l-0.5-1.5l-0.5-0.8
	l-0.4-0.5c0,0-0.5,0-0.9,0.1c-0.4,0.1,0.4,0-0.4,0.1c-0.8,0.1-0.3,0.7-1.3,0.1c-1.1-0.5-1.1-0.5-1.1-0.5l0,0l-1.2-2.1l-0.5-0.1
	l-1.9-1.5c0,0,0-0.8,0-1.2s-1.2-1.9-0.8-2.1c0.4-0.3,1.1-0.4,1.1-0.4s2.8-0.1,3.2-0.3c0.4-0.1,0.4-0.1,0.4-0.1l1.2-0.5
	c0,0,0.7-0.5,1.1-0.7c0.4-0.1-0.8-0.4,0.9-0.1c1.7,0.3,2.7,0.3,2.7,0.3l1.2-0.5l1.5-1.2c1.2,0.1,1.6,0.4,2,0.4c0.4,0,1.1,0,1.9,0
	c0.8,0,2.3-0.7,2.7-0.7c0.4,0,1.6-0.8,1.6-0.8l0.9-0.2l0.3,0.3h0.8l0.3-0.2l0.3,0.2L136,68l0.6-0.4l0.6,0.2c0,0,0.2-0.1,0.4-0.1
	c0.2-0.1,0.4,0,0.4,0l0.6,0.2l0.6,0.2l0.8,0.2v-0.6c0,0-0.2-0.1,0-0.2c0.2-0.1,0.4-0.1,0.4-0.1l0.4,0.2c0.2,0.2,0.5,0.3,0.5,0.3
	l0.1-0.7l-0.1-0.2c0,0,0.1-0.2,0.3,0c0.2,0.2,0.6,0.2,0.6,0.2l0.4-0.2l0.4,0.2v0.2l0.8,0.4l0.4-0.3l0.3,0.1l0.3,0.2l0.6,0.2l0.3-0.2
	c0,0,0-0.1,0.2-0.2c0.2-0.1,0.2-0.1,0.2-0.1s-0.4-0.4,0,0c0.4,0.4,1.2,0.5,1.2,0.5s0.2-0.1,0.4-0.2c0.1,0,0.1,0,0.1,0s0.1-0.5,0.2,0
	c0.2,0.5,0.8,0.6,0.8,0.6l0.4-0.2l0.3-0.1c0.4,0.2,1,0.2,1,0.2l0.4-0.2l0.5,0.3h0.2l0.2-0.1l0.2,0l0.5-0.1l0.8,0.3l0.7,0.4"/>
<path fill="#DDDDDD" d="M167.2,68.8l-0.5,1.6v1.1l-0.6,0.3l-0.4-1.1l-1.4-0.7l-1.2-0.1l0.2,0.7v1.1l-0.6-0.2l-0.5-0.9V70l-0.4-0.1
	l-0.2-0.7l-0.5-0.3l-0.3,0.6c0,0-0.5,0.3-0.9,0.2c-0.4-0.1-0.4-0.1-1.5-0.1c-1.1,0-1.1,0-1.1,0l-2,0.8l-0.1,0.6l-1.8-0.3l-0.4,1.1
	l-1.4,0.2l-0.8,0.6l-0.8,0.6l-1.7,0.6l-1.5,0.1l0.3,1l2.8-0.1l-0.3,1.8l-0.1,0.5l-1.2,1h-1.9l-1.6,0.1l-1.9,0.2l-2,0.5l-0.4,0.8
	l0.8,0.8l1,1l1.6,0.1l1.8-0.6l2.2-0.3l1.1,0.3l-1.2,1l-2.6,0.5l-1.2,0.1l-1.5-0.1l-0.9,0.1v0.6l2,0.1l0.3,1l0.1,0.9h1.3l1.1-0.6
	l1.7-0.8l0.9,0.2l0.7-0.1l1.4-0.1c0,0,0.1-0.3,0.6-0.2c0.5,0.1,1,0.2,1,0.2l-0.2,0.8l1,0.2l1.5-0.5l0.8,0.7v0.7l0.9,0.3h0.5l0.7,0.6
	l-0.1,1.2l1.9,0.9l0.1,1.2c0,0.8,0.2,1.2,0.2,1.2l0.5,0.1l0.6,0.3l0.2,0.8l0.1,0.5l-0.9-0.1c0,0-0.3,0.1-0.4,0.5
	c-0.1,0.4-0.2,0.6-0.2,0.9c0,0.3,0-0.2,0,0.3c0,0.5,0.2,1.2,0.2,1.2L161,96l1.2-0.4l0.1-0.8c0,0,0.3,0,0.6-0.1
	c0.3-0.1-0.2-0.6,0.3-0.1c0.5,0.5,0.2,0.2,0.5,0.5c0.3,0.3,0.4,0.7,0.4,0.7h1h0.6c0,0,0.5-0.7,0.6,0.1c0.1,0.8,0.3,0.3,0.1,0.8
	c-0.2,0.5,0.5,0.2-0.2,0.5c-0.7,0.3-2.1,0.3-2.1,0.3l-0.6-0.3l-1.3-0.1c0,0,0-0.1-0.4,0.3c-0.4,0.4-0.3,0.1-0.4,0.4
	c-0.1,0.3-0.1-0.2-0.1,0.3c0,0.5,0,0.5,0,0.5l-0.4,0.6c0,0-0.7,0.2-0.8,0.5C160,100,160,100,160,100l0.4,0.2l0.7,0.2h0.8
	c0,0,0.2,0.3-0.1,0.6c-0.3,0.3-0.3,0.3-0.3,0.3l0.9,0.4l0.9-0.3l0.5-0.7l0.1-0.6l-0.7-0.5l0.1-0.7l1-0.2l0.8,0.1c0,0,0.5,0,0.8,0.2
	c0.3,0.2,0.1,0.5-0.1,0.9c-0.2,0.4-0.3,0.5-0.4,0.8c-0.1,0.3-0.1,0.3-0.1,0.3s-0.3-0.8,0,0c0.3,0.8,0.7,1.3,0.7,1.3
	s-0.5,0.4-0.8,0.5c-0.3,0.1-0.3,0.1-0.3,0.1h-1.3l-0.4,0.1c-0.1,0.6-0.1,0.6-0.1,0.6s0.9,0.5,0.3,0.6c-0.6,0.1-0.6,0.1-0.6,0.1
	s-0.2,0-0.4,0.6c-0.2,0.6-0.1,1-0.1,1l0.7,0.5c0,0,0,0.2-0.1,0.5c-0.1,0.3-0.1,0.3-0.1,0.3l0.5,0.8c0,0-1.2,0.7-0.5,0.8
	c0.7,0.1,1.2,0.1,1.2,0.1c0.4,0,0.1,0.5,0.1,0.5l-0.2,0.6c0,0,0.1,0.2,0.3,0.4c0.1,0.2,0.7,0.4,0.7,0.4l0.1,0.8l-0.1,0.3
	c0,0-0.1-0.1-0.1,0.3c0,0.3,0.1,0.7,0.1,0.7s0.1,0,0.3,0.2c0.2,0.2,1.1,0.1,1.1,0.3c0.1,0.3-0.1,1.1-0.1,1.1s0.3,0.3,0.5,0.3
	c0.3,0.1,0.1-0.4,0.3,0.1c0.1,0.5,0.3,0.3,0.4,0.5c0.1,0.3,0.2-0.1,0.1,0.3c-0.1,0.4-0.3-0.1-0.1,0.4c0.3,0.5,0.6,0.7,0.6,0.7
	l0.3-0.1c0,0-0.1-0.6,0.6,0.1c0.7,0.7,0.2,0.1,0.1,1.4l0.3,0.1h0.5l0.7-0.1l0.4-0.1l0.5-0.4l0.1-0.5c0,0,0.3-0.4,0.4,0.1
	c0.1,0.5,0.2,0.5,0.1,0.9c-0.1,0.4-0.1,0.4-0.1,0.4s-0.1,0.2,0.1,0.4c0.2,0.2,0.7,0.2,0.7,0.2c0.1,0.4,0.6,0.3,0.6,0.5
	c0,0.3,0.6,0.4,0.6,0.4l0.4-0.2l0.3-0.3l0.5-0.2l0.5-0.7l-0.3-0.7l0.1-0.4c0,0,0.1-0.4,0.3-0.4c0.2,0,0.2,0,0.2,0l0.7-1.1l0.1-0.5
	l-0.2-0.6l0.3-0.7l0.4-0.4l0.5-0.2l0.5-0.6l-0.2-0.7v-0.7l0.3-0.5l0.5-0.2l0.1-0.8l0.2-1.1l0.3-0.3l1-0.4c0,0,0.8-0.2,1.1,0
	c0.3,0.2-0.1-0.1,0.3,0.2c0.3,0.3,1.7,0.1,1.7,0.1l0.5-0.4l0.5-1.3l0.1-0.4l0.9,0l0.9-0.9l0.2-0.1l0.5-0.4c0,0,0.3-0.5,0.5-0.6
	c0.2-0.1,0.2-0.1,0.2-0.1l0.8,0l0.6-0.4l0.2-0.5l0.3-0.3c0,0,0.2,0,0.4-0.1c0.2-0.1,0.8,0.1,0.8,0.1l0.2-0.2l0.7-0.7
	c0,0,0.9-0.1,1,0.1c0.1,0.2,0.6,0.3,0.6,0.3l0.9-0.3l0.2-0.4l0.4-0.5c0,0,1.5-0.1,1.7-0.1c0.2,0,0.5-0.8,0.5-0.8v-0.5l0.2-0.1
	l0.8-0.6c0,0,0.1-0.2,0.2-0.1c0.2,0.1,0.3,0.3,0.3,0.3l0.6,0.1l0.4-0.1l0.3-0.5l0.3-0.3l0.2-0.5v-0.3c0,0-1.2-0.5-1.3-0.7
	c-0.2-0.3-0.2-0.3-0.2-0.3l-0.8-0.3l-0.6-0.8c0,0,0.1-0.4,0.3-0.5c0.1-0.1,0-0.5,0.5-0.3c0.5,0.2,0.1-0.6,0.5,0.2
	c0.4,0.8,0.7,1,0.7,1s0.1,0.1,0.3,0.2c0.2,0.1,2,0.3,2,0.3l0.3-0.2l-0.1-0.5l-0.4-0.5l-0.4-0.6c0,0-0.3-0.2-0.3-0.4
	c-0.1-0.1-0.3-0.4-0.3-0.4l-0.1-0.6c0,0-0.1-0.4,0.3-0.5c0.4-0.1,0.4-0.1,0.4-0.1l0.5-0.7c0,0-0.3-1-0.1-1.1
	c0.2-0.2,0.6-0.8,0.9-0.9c0.3-0.2-0.2-1-0.2-1s0.3-0.6,0.6-0.7c0.3-0.1,0.6-0.4,0.8-0.4c0.2-0.1,0.5-0.3,0.5-0.3l0.6-0.6l-0.2-0.6
	l-0.3-0.6l-0.2-0.7l0.1-0.3l0.4-0.5v-0.5l-0.3-0.4l-0.7-0.8l1.3-0.3l0.9-0.7c0,0,0.6-0.2,0.7-0.4c0.1-0.3-0.2-1.4-0.2-1.4l-1,0.3
	l-0.8-0.5c0,0-0.8-0.5-1-0.6c-0.2-0.1-0.7-0.5-0.9-0.6c-0.2-0.1-0.8,0-0.5-0.2c0.3-0.2,1.5-0.7,1.7-0.8c0.2-0.1,0.7-0.1,0.9-0.2
	c0.2-0.1,0.7-0.5,0.7-0.5l-0.4-1c0,0,0.1-0.3,0.2-0.4c0.2-0.1-0.3,0.1,0.2-0.1c0.4-0.1,1.1-0.3,1.1-0.3l0.2-0.1l0.5-1.5l0.5-0.3
	l0.9-0.2l0.8-0.6c0,0-0.1-0.7-0.4-0.7c-0.3,0-1.3,0-1.5-0.2c-0.2-0.1-0.5-0.5-0.5-0.5s0.7-0.4,1.2-0.3c0.5,0.2,1.2,0.1,1.5,0.2
	c0.3,0.1,0.7,0.1,0.7,0.1l1.3-0.2l0.5-0.3v-0.2l0.2-0.3l0.3-0.2l0.1-0.5l-0.2-0.6c0,0,0-0.1-0.7-0.1c-0.8,0-0.4-0.2-0.8,0
	c-0.4,0.2-0.4,0.2-1.6,0.2c-1.3,0-1.3,0-1.3,0s0.1-0.1-0.3,0.1s0-0.1-0.4,0.1c-0.4,0.2,0.3-0.1-0.4,0.2c-0.6,0.3-0.3,0.2-0.6,0.3
	c-0.4,0.1,0.5,0.1-0.7,0.2c-1.2,0.1-1.2,0.1-1.2,0.1s0.2,0.2-0.4,0c-0.6-0.2-0.9,0-1.2,0c-0.3,0.1-0.3,0.1-0.5,0.2
	c-0.2,0.1,0.3-0.3-0.2,0.1c-0.5,0.4-0.5,0.7-0.9,0.6c-0.4,0-0.1,0-0.4,0c-0.3-0.1-1-0.3-1-0.3l-0.2-0.5c0,0,0.2-0.4,0.5-0.4
	c0.3,0,0.8-0.2,0.8-0.2l0.1-1c0,0,0-0.2,0.2-0.3c0.2-0.1,0.2-0.1,0.4-0.2c0.2-0.1,0.5-0.3,0.5-0.3l0.3-0.3l0.4-0.6l-2.4-0.5
	l-0.1-0.8l-1.8,0.1v-0.7l-1.3-0.1l-1.2-0.4l-0.8-0.6l-3.1,0.1l-2.1,0.1c0,0-1.6-0.1-1.8,0c-0.2,0.2-0.1,0.3-0.4,0.5
	c-0.3,0.2-1,0.4-1,0.4l-0.8-0.2l-0.3-0.5c0,0,0.1-0.2-0.1-0.2c-0.2,0-0.7-0.1-1-0.1c-0.3,0,0.5-0.2-0.3,0c-0.8,0.2-0.7,0.2-1.4,0.2
	c-0.7,0-0.2,0.1-0.7,0c-0.5,0-0.5,0-0.5,0s-0.3-0.2-0.9,0.2c-0.6,0.3-0.3,0-0.6,0.3c-0.3,0.3-0.2,0.1-0.3,0.3
	c-0.1,0.3,0-0.2-0.1,0.3c-0.1,0.4,0.5,0.3-0.1,0.4c-0.6,0.1-0.6,0.1-0.6,0.1s0.2,0-0.3,0.1c-0.5,0.1,0.1,0.1-0.5,0.1
	c-0.5,0,0.1,0.2-0.5,0c-0.6-0.2-0.6-0.2-0.6-0.2s-0.2-0.4-0.2-0.5c0.1-0.2,0.1-0.2-0.1-0.4c-0.2-0.2,0.2-0.2-0.6-0.1
	c-0.7,0.1,0.1,0.1-0.7,0.1c-0.8,0.1-0.7-0.2-0.8,0.1c-0.1,0.3-0.1,0.5-0.1,0.5s0.2,0.1,0,0.2c-0.2,0.2,0.2,0-0.2,0.2
	c-0.4,0.2,0.4,0.1-0.4,0.2s-0.8,0.1-0.8,0.1s-0.1-0.6-0.2,0c-0.1,0.7-0.1,1,0.1,1.2c0.2,0.1-0.8-0.3-1-0.3c-0.2,0-0.4-0.1-0.7,0.1
	c-0.4,0.2-0.4,0.1-0.6,0.3c-0.2,0.2-0.2,0.2-0.2,0.2s-0.1-0.2-0.1,0.2c0,0.4-0.2,0.3,0.1,0.7c0.3,0.4,0.4,0.4,0.5,0.6
	c0.2,0.3-0.1,0.2,0.2,0.3c0.3,0.1,0.6-0.1,1,0.2c0.5,0.3,0.5-0.2,0.5,0.3c-0.1,0.5,0.4,0.2-0.1,0.5c-0.5,0.3,0,0.2-0.5,0.3
	c-0.5,0.1-0.5,0.1-0.8,0c-0.3-0.1,0,0-0.6-0.2c-0.6-0.2-0.8-0.5-1-0.6c-0.2-0.1-0.5-0.6-0.5-0.6s0.1-0.1-0.2-0.3l-0.7-0.5l-0.2-0.7
	l-0.5-0.1l-0.5-0.6L167.2,68.8z"/>
<path fill="#DDDDDD" d="M153.3,203.7l-0.8-0.7l-0.7-1.3l-1.4,0.1l-1.1,0.7c0,0-0.5,0.3-0.9,0.3c-0.4,0-0.9-0.4-1.2-0.3
	c-0.3,0.1-0.3,0.1-0.3,0.1s-1.7-0.6-2.5-0.5c-0.8,0.1-0.2-0.4-0.2-0.4l0.4-0.7c0,0-0.7-0.4-1.1-0.3c-0.4,0.1-0.4,0.1-0.4,0.1
	l-0.2-0.5l-0.1-0.8c0,0-0.3-0.2-0.5,0.2c-0.2,0.4-0.1-0.7-0.2,0.4c-0.1,1.1-0.1,1.1-0.1,1.1s0.4-0.7,0,0c-0.4,0.7-0.5,1.7-0.5,1.7
	l-0.7,0.1l-0.7-1.2l0.1-0.8l0.2-0.7l-0.2-0.5c-1.2,0-0.4-0.7-1.2,0c-0.8,0.7-0.2-0.1-0.8,0.7c-0.6,0.8-0.6,0.8-0.6,0.8s0.8-0.5,0,0
	c-0.8,0.5-0.2,0-0.8,0.5c-0.6,0.5-0.6,0.6-0.7,1.2c-0.1,0.6,0.4-0.5-0.1,0.6c-0.5,1.1-0.2,0.7-0.5,1.1c-0.3,0.4-0.3,0.4-0.3,0.4
	s-0.1,0.2-0.5,0.1c-0.4-0.1-0.7-0.5-0.7-0.5l-0.4-0.8l-1-0.1l-0.8-0.3c0,0,0.6,1.4,1,1.8c0.4,0.4,0-0.1,0.4,0.4
	c0.4,0.5,0.1-0.3,0.4,0.5c0.3,0.8,0.6,0.4,0.3,1.3c-0.3,0.9,0,0.1-0.3,0.9c-0.3,0.8-0.3,0.8-0.3,0.8s0.1,1.3,0.1,1.6
	c0,0.3,0.6-0.4,0,0.3c-0.6,0.7-0.8,0.9-1,1.3c-0.2,0.4-0.7-0.7-0.2,0.4c0.5,1.1,0.4,0.7-0.1,1.3c-0.5,0.6-0.5,0.6-0.5,0.6
	s0,0.4-0.3,0.4c-0.3,0-0.1-0.2-0.7,0.1c-0.6,0.3-0.3-0.2-0.6,0.3c-0.3,0.5-0.9-0.1-0.3,0.5c0.6,0.6,2.5,0.4,2.4,0.7
	c-0.1,0.3-1.8,1.3-1.8,1.3c-0.6,0.2-0.6,0.2-0.6,0.2s0,0-0.1,0.4c-0.1,0.4-0.1,0.4-0.1,0.4s-0.1-0.2,0.1,0.6
	c0.2,0.8,0.2,0.8,0.2,0.8s0.4,0.2,0.2,0.5c-0.2,0.3,0.2-0.2-0.2,0.3c-0.4,0.5-0.9,0.7-1.2,0.8c-0.3,0.1,0.1-0.7-0.3,0.1
	c-0.4,0.8-0.9-0.1-0.4,0.8c0.5,0.9,0.2,0.3,0.5,0.9c0.3,0.6,1.1,1.7,1.1,1.7s1.7,0.3,1.8,0.7c0.1,0.4,0.4,1.7,0.4,1.7l0.2,1l0.8,0.3
	c0,0,0-0.9,0.3,0.4c0.3,1.3,0.5,1.5,0.6,1.8c0.1,0.3,0.1,0.1,0.1,0.8c0,0.7-0.8,0.8,0,1.2c0.8,0.4,1.6,0.4,1.6,0.4
	c0.2,0.6,0.2,0.4,0,1.1c-0.2,0.7-0.3-0.1-0.2,0.7c0.1,0.8,0,0.3,0.1,0.8c0.1,0.5-0.5,0.2,0.1,0.5c0.6,0.3,1,0.3,1,0.3s0.1,0,0.4,0.2
	c0.3,0.2,0.8-0.3,1,0.4c0.2,0.7-0.3,0,0.2,0.7c0.5,0.7,0.8,0.4,0.9,0.9c0.1,0.5,0.1,0.5,0.1,0.5s0.1,0.2,0.4,0.3
	c0.3,0.1,1,0.2,1,0.2l0.6,0.3c0,0,0.1-1,0.5,0.4c0.4,1.4,1.7,1.1,1.3,1.7c-0.4,0.6-0.2,0-0.4,0.6c-0.2,0.6,0.1-0.2-0.2,0.6
	c-0.3,0.8,1,1.6,1,1.6c-1,1.2-1.1,1.3-1.2,1.8c-0.1,0.5,0.1,1.6,0.3,1.9c0.2,0.3,0.7,0.1,0.2,0.7c-0.5,0.6-0.5,0.6-0.5,0.6
	s-0.1-0.1-0.1,0.4c0,0.5,0.2,0.6,0.2,1c0,0.4,0-0.2,0,0.4c0,0.6,0.3-0.3,0,0.6c-0.3,0.9-0.4,1.1-0.5,1.5c-0.1,0.4-0.3-0.2-0.1,0.4
	c0.2,0.6,0.5,0.6,0.2,1c-0.3,0.4-0.2-0.2-0.3,0.4c-0.1,0.6,0.4-0.6-0.1,0.6c-0.5,1.2-0.5,0.7-0.5,1.2c0,0.5,0.1-0.2,0,0.5
	c-0.1,0.7-0.5,0.5-0.1,0.7c0.4,0.2,0.6-0.5,0.4,0.2c-0.2,0.7-0.1,0.7-0.1,1.2c0,0.5,0.2,0.9,0.2,0.9s0.3-0.1,0,0.4
	c-0.3,0.5,0.1,1-0.3,1.3c-0.4,0.3,0.1-0.8-0.4,0.3c-0.5,1.1-0.8,0.9-0.5,1.1c0.3,0.2,0.7-0.8,0.3,0.2c-0.4,1-0.4,1-0.4,1l0.1,0.6
	c0,0-0.3,0-0.4,0.3c-0.1,0.3-0.4,0.3-0.4,1c0,0.7,0,1,0.1,1.4c0.1,0.4,0.2,1,0.2,1s0.3,0.3-0.1,0.5c-0.4,0.2-1.2,0.1-1.2,0.1
	c-0.3,1.4,0.1,1.4,0.1,1.9c0,0.5-0.4-0.2,0,0.5c0.4,0.7,0.4,0,0.4,0.7c0,0.7,0.1-0.3,0,0.7c-0.1,1,0.6,1.3-0.1,1.4
	c-0.7,0.1-0.7,0.1-0.7,0.1s-0.1-0.6-0.5,0.1c-0.4,0.7-0.9,0.6-0.3,1.1c0.6,0.5,1.8,0.7,1.8,0.7l-0.2,0.4c0.3,0.8,0.8,0.4,0.3,0.8
	c-0.5,0.4-0.5,0.4-0.5,0.4s0.5,0,0.1,0.5c-0.4,0.5,0.2,0.3-0.4,0.5c-0.6,0.2-0.1,0-0.6,0.2c-0.5,0.2-0.3-0.8-0.5,0.2
	c-0.2,1-1,0.1-0.2,1c0.8,0.9,1.3,0.5,1.4,1c0.1,0.5-0.6,1-1,1c-0.4,0-0.5,0-0.8,0.1c-0.3,0.1,0.2-0.2-0.3,0.1
	c-0.5,0.3-0.6-0.6-0.5,0.3c0.1,0.9,0.4,1.1,0.4,1.4c0,0.3-0.1-0.1,0,0.7c0.1,0.8,0.4,0.4,0.5,0.9c0.1,0.5,0,0.1-0.5,0.8
	c-0.5,0.7-0.9-0.3-0.5,0.7c0.4,1,0.1,0.9,0.2,1.6c0.1,0.7,0.2,0.5,0.4,1.5c0.2,1,0.1,0.1,0.7,1.1c0.6,1,0.8,0.4,1.2,1.1
	c0.4,0.7,0.4-0.1,1,0.7c0.6,0.8,0.2-0.2,0.6,0.8c0.4,1,1,0.7,1,1.5c0,0.8-1.2-0.2,0,0.8c1.2,1,1.2,1,1.2,1s0.3,0,0.8,0.3
	c0.5,0.3,1.3,0.3,1.3,0.3s1.1,0,1.2-0.3c0.1-0.3,0.7-0.9,0.7-0.9l0.4-0.1l0.9-0.3c0,0,1-0.2,1.3-0.4c0.3-0.2,0.7-0.4,0.7-0.4
	s-0.5-1-1-1c-0.5,0-2,0-2,0l-1.9-1.7l-0.3-0.8l0.3-1.2l0.7-0.7c0,0,0.4-0.7,0.1-1c-0.3-0.3-0.6-0.9-0.6-0.9l-0.4-0.7l0.6-0.7
	c0,0,0.1-0.2,0.4-0.2c0.3,0,0.9-0.4,0.9-0.4l0.1-0.8l0.7-0.6l0.6-0.2v-1.3l-1.1-0.9l-0.5-0.5l-0.4-1l0.2-0.9c0,0,0.3-0.5,0.5-0.8
	c0.2-0.3,0.7-0.9,1.1-1.1c0.4-0.2,0.9-0.7,0.9-0.7l0.4-0.9l-0.1-1.1l-0.4-0.7l1.1-0.1l1-0.2l0.4-0.6c0,0,0.3-0.4,0.5-0.9
	c0.2-0.5,0.2-1,0.2-1s0.2-0.2,0.6-0.3c0.4-0.1,0.4-0.2,0.7-0.9c0.3-0.7,0.3-0.7,0.3-0.7l0.6-0.3c0,0,0.5-0.2,1.1,0
	c0.6,0.2,0.8,0.3,1.1,0.2c0.3-0.1,1-0.5,1-0.5l0.2-1.4l0.6-0.5l0.6-0.6l0.3-1.3l-0.2-0.6c0,0,0.2,0-0.4-0.5
	c-0.6-0.5-0.6-0.5-0.6-0.5l-0.6-0.6l-0.3-1c0,0-1.3-1.2,0.1-0.4c1.4,0.8,1,0.1,1.4,0.8c0.4,0.7,0.3,0.5,0.9,1
	c0.6,0.5,1.2,0.5,1.2,0.5l0.7-0.6c0,0,0.5-0.3,0.7-0.6c0.2-0.3,0.1-1.1,0.4-1.2c0.3-0.1,0.3-0.1,0.3-0.1s0.3-0.7,0.4-1.3
	c0.1-0.6,0.1-1.1,0.1-1.1l0.5-0.3l1-0.3l1.6-1.5c0,0,0.6-0.4,0.9-0.6c0.3-0.2,0.6-1,0.6-1l0.3-0.6l0.1-0.8c0,0,0.1-0.4,0-0.8
	c-0.1-0.4-0.3-1.7-0.3-1.7V253l1.4-0.8l0.6-0.7l1.1-0.5c0,0,0.6-0.6,0.9-0.6c0.3,0,0.9,0,0.9,0l0.8-0.3l1.3-0.7l1-0.2l0.6-0.3
	l0.4-0.5l0.1-1.4l1-0.2l1.5-2.1l0.8-0.8v-1.6v-1l0.3-1.1l0.5-1.2l-0.3-1.2v-1l0.1-0.8c0,0-0.3-1.1,0-1.3c0.3-0.2,0.3-0.6,0.6-0.8
	c0.3-0.2,0.9-0.5,0.9-0.5s1-1.4,1.2-1.7c0.2-0.3,0.5-0.9,0.5-0.9s0.6-0.2,0.9-0.4c0.3-0.2,0.6-0.6,0.6-0.6l1.2-2.3l-0.6-1.9
	c-0.4-0.5-0.7-0.9-0.9-1.3c-0.2-0.4,0.4,0.2-0.2-0.4c-0.6-0.6,0.1-0.3-0.6-0.6c-0.7-0.3-1.3-0.4-1.3-0.4s0.3,0.4-0.5-0.1
	c-0.8-0.5-0.8-0.5-0.8-0.5l-0.7-0.5l-0.7-0.9c0,0,0.1-0.1,0-0.4c-0.1-0.3,1.1-0.8-0.1-0.3c-1.2,0.5-0.4,0.1-1.2,0.5
	c-0.8,0.4-0.1,0.2-0.8,0.4c-0.7,0.2-0.7,0.2-0.7,0.2s-1.2-1.3-1.6-1.3s-0.4,0-0.4,0s1-0.1,0,0c-1,0.1-1,0.1-1,0.1s0.4,0.4-0.5,0.2
	c-0.9-0.2-1.3-0.6-1.3-0.9c0-0.3,0.3-1.4,0.3-1.4c-0.1-0.3,0-0.6-0.6-0.2c-0.6,0.4-0.2,0.3-0.6,0.4c-0.4,0.1,0,0-0.4,0.1
	c-0.4,0.1-0.8-0.8-1.1-0.8s-0.3,0-0.3,0s0.2-0.5-0.4-0.5c-0.6,0-0.7,0-1,0c-0.3,0,0.4,0-0.3,0c-0.7,0-1.2-0.3-1.2-0.3s0-0.7-0.5-0.1
	c-0.5,0.6-0.3-0.4-0.5,0.6c-0.2,1,0.7,0.4-0.2,1c-0.9,0.6-0.9,0.6-0.9,0.6v-1.5v-0.8c0,0,0.6-0.8,0.9-0.8c0.3,0,1-0.5,1-0.5l0.3-0.5
	l0.1-1.5l-0.6-1c0,0-1.2-0.7-1.5-1.3c-0.3-0.6-0.3-0.6-0.3-0.6s-0.5-0.5-0.7-0.8c-0.2-0.3-0.7-0.5-0.7-0.5s0-0.2-0.7-0.4
	c-0.7-0.2-0.6,0.1-1.2-0.2c-0.6-0.3,0.6-0.5-1.5-0.6c-2.1-0.1-2.1-0.1-2.1-0.1s0.4,0-0.6-0.2c-1-0.2-1.4-0.7-1.4-0.7l-0.6-1.2
	l-0.3-0.5l-0.1-0.6L153.3,203.7z"/>
<path fill="#DDDDDD" d="M265.4,171.1l-5.1-0.3h-2.7l-0.7-0.9c-0.8-0.1-2.1-0.4-2.1-0.4h-2.1v-1.3l-1.3-0.3l-0.7,0.5
	c0,0,0.1,0.8-0.3,1.5c-0.4,0.7-0.5,1.6-0.5,1.6s-0.4,0-1.3,0.1c-0.9,0.1-0.9,0.1-0.9,0.1l-1.2-0.1l-0.7-0.9l-1.6-0.9
	c0,0,0-0.4-0.3-0.8c-0.3-0.4-0.3-0.4-0.3-0.4s-1.1-0.4-1.9-0.1c-0.8,0.3-0.8,0.3-0.8,0.3l-0.8-0.4l-0.8-0.8l-0.1-1.3l0.7-0.3v-0.8
	l0.1-1.2l-0.1-0.7l0.1-1.5c0,0-0.4-0.4-1.2-0.4c-0.8,0-1.2,0.4-1.5,0c-0.3-0.4,1.1-0.3-0.8-0.4c-1.9-0.1-2.1-0.4-3.2-0.3
	c-1.1,0.1-0.4,0.1-1.1,0.1c-0.7,0-0.5-0.1-1.3,0c-0.8,0.1,0.1-0.4-0.8,0.1c-0.9,0.5,0-0.1-0.9,0.5c-0.9,0.7-0.3,0.3-0.9,0.7
	c-0.7,0.4,0-0.1-0.7,0.4c-0.7,0.5,0-0.1-0.7,0.5c-0.7,0.7-0.7,0.7-0.7,0.7s1.1,0-0.9,0.4c-2,0.4-2,0.4-2,0.4s0.7-0.1-0.5,0
	c-1.2,0.1-1.2,0.1-1.2,0.1s-1.2-0.4-2.1-0.4c-0.9,0-0.9,0-0.9,0l-0.7,0.4c-0.4,0.7-0.3,0.5-0.4,1.2c-0.1,0.7,0.8,0-0.1,0.7
	c-0.9,0.7-0.4,0.1-1.9,1.2c-1.5,1.1-2.1-1.2-1.5,1.1c0.7,2.3,0.7,3.3,0.7,3.3l-0.4,0.5l-0.8,1.3l-1.1,0.4c0,0-0.8,0.1-0.9,0.7
	c-0.1,0.5,0-0.4-0.1,0.5c-0.1,0.9,0,1.6,0,1.6l-1.7,1.3c0,0-1.1-0.4-1.1,0.5c0,0.9,0,0.1,0,0.9c0,0.8,0.1,0.9,0,1.6
	c-0.1,0.7,0.1,0.7-0.4,1.3c-0.5,0.7-0.8-0.1-1.1,0.7c-0.3,0.8-0.3,0.8-0.4,1.6c-0.1,0.8-0.1,1.1-0.1,1.7c0,0.7,0.1,1.3,0.1,1.3
	l0.3,1.5c0,0,0.1,0.3,0.1,0.9c0,0.7,0,0.7,0,0.7l-0.7,0.9c0,0-1.3-1.5-0.4,0.8c0.9,2.3,1.2,2.9,0.8,3.2c-0.4,0.3-1.5,0.4-1.5,0.4
	l0.7,3.3l2.1,0.9l0.4,1.7c0,0,1.2,0.1,1.2,0.7c0,0.5,0.4,0.9,0.3,1.5c-0.1,0.5,0.3,1.2,0.4,1.7c0.1,0.5,0.1,0.9,0.5,1.3
	c0.4,0.4,1.3,0.5,1.3,0.5s1.2,0.3,1.9,0.9c0.7,0.7,1.2,0.7,1.5,1.2c0.3,0.5,0.9,0.8,0.9,0.8l0.4,0.7l1.1,0.1l0.8-0.3l0.9-0.3
	l2.7-0.3l0.7-0.1c0,0,0.7-0.5,0.7-0.9c0-0.4,1.3-0.8,1.3-0.8h0.9l0.8,0.1l1.3-0.3l1.2-1.2c0,0,1.5-0.9,1.5-0.5
	c0,0.4,1.6,0.8,1.5,1.2c-0.1,0.4-0.1,0.4-0.1,0.4s0.3,0.1,0,0.5c-0.3,0.4-0.3,0.4-0.3,0.4l1.3-0.5c0,0,1.2-0.5,0.9,0
	c-0.3,0.5-0.7,1.6-0.7,1.6l1.3,0.7l1.3-0.1l1.6,0.4c0,0-0.1,1.7-0.3,2.3c-0.1,0.5-0.1,0.5-0.1,0.5l-0.5,1.1c0,0-0.5-0.1,0.1,0.8
	c0.7,0.9,0.7,0.9,0.7,0.9L237,219c0,0-0.4,0-0.9,0.1c-0.5,0.1-0.5-0.9-0.5,0.1c0,1.1,0.1,1.2,0.5,1.6c0.4,0.4,1.6,0.4,1.6,0.4
	l0.7-0.5l0.7,1.2c0.4,0.9,1.5,1.7,1.5,1.7l-0.4,0.9l0.9-0.3c0.1,0.9,0.3,0.3,0.1,0.9c-0.1,0.7,0.7,1.3,0.7,1.3s1.1,0.1,0.9,0.5
	c-0.1,0.4-0.3,1.5-0.3,1.5v1.1l-0.1,0.6c0,0,0.5-0.1,0.6,0.3c0.1,0.4,0.1,0.4,0.1,0.4l0.6,0.6c-0.2,0.7,0.2,0.1-0.2,0.7
	c-0.4,0.6-0.2,0.3-0.4,0.6c-0.2,0.3,0.5,0-0.2,0.3c-0.7,0.3,0,0-0.7,0.3c-0.7,0.3-0.1,0-0.7,0.3c-0.6,0.3-0.7,0-0.8,0.8
	c-0.1,0.8,0,0.4-0.1,0.8c-0.1,0.4-0.1-0.2-0.1,0.4c0,0.6,0.3,0.4,0,0.6c-0.3,0.2,0.1-0.6-0.3,0.2c-0.4,0.8-0.4,0.2-0.4,0.8
	c0,0.6,0,0.4,0,1.1c0,0.7,0.2,1.5,0.2,1.5l0.4,0.7l0.3,1c0.6,0.6,0.2,0.3,0.6,0.6c0.4,0.3,1.3,0.1,1.5,0.4c0.2,0.3,0.3,0.4,0,0.9
	c-0.3,0.5-0.1,0.2-0.3,0.5c-0.2,0.3-0.2-0.3-0.2,0.3c0,0.6-0.4,0.2,0,0.6c0.4,0.4,0.9,0.5,0.9,0.5s0.3,0.1,0.3,0.4
	c0,0.3-0.1-0.5,0,0.3c0.1,0.8,0.1,0.1,0.1,0.8s0.8,1.2,0.5,1.5c-0.3,0.3-0.8,0.3-0.8,1.3c0,1-0.3,0.3,0,1c0.3,0.7,0.6,0.9,1,1
	c0.4,0.1,0-0.5,0.4,0.1c0.4,0.6,0.2-0.2,0.4,0.6c0.2,0.8,0.2,0.6,0.2,1.2c0,0.6,0,0.6,0,0.6s-0.1,0.4,0,0.9c0.1,0.5,1,0.7,1,0.7
	s0.3,0,0.6-0.1c0.3-0.1,0.3-0.4,0.3-0.1c0,0.3-0.1,0.3-0.1,0.7c0,0.4-0.2-0.2,0,0.4c0.2,0.6,0,0.7,0.2,1c0.2,0.3,0.2,0.2,0.2,0.7
	c0,0.5,0.1,0.3,0,0.9c-0.1,0.6-0.5,0.2-0.1,0.6c0.4,0.4,0.9,0.5,0.9,0.5c0.3,0.6,0.4,0,0.3,0.6c-0.1,0.6,1,0.5,1,0.5h1.1
	c0,0,0.7,0.1,1,0.2c0.3,0.1,0.3,0.1,0.3,0.1l2.8-0.1c0,0-0.1-0.4,0.5-0.1c0.6,0.3,2.6-0.2,2.6-0.2l0.5-0.6l0.7-1.3l1-1l0.4-0.3
	l0.8-0.7l0.2-0.6l0.6-0.4c0,0,0.7-0.6,0.9-0.9c0.2-0.3,0.7-1,0.7-1l0.8-1c0,0,1,0.6,1-0.7c0-1.3-0.2-2.1-0.2-2.1l0.4-0.8h0.7
	l1.6-0.2l0.5-0.2c0,0-0.2-1.1-0.2-1.5c0-0.4-0.1-1.4-0.1-1.8c0-0.4-0.2-1.1,0-1.5c0.2-0.4,0.4-1.3,0.4-1.3l-0.2-1l1.9-1.3l1.1-0.5
	l2-1.6l0.9-1.9l-0.1-0.8l0.4-1.6l0.1-0.7l-0.6-1l-0.2-0.8l-0.1-1l-0.4-1.5l-0.3-1.4v-0.9L273,226c0,0-0.7-1.1-0.1-1.5
	c0.6-0.4,1-1,1-1l0.4-0.6l0.5-1.2l0.2-0.4l1.8-1.6c0,0,0.9-2,1.2-1.9c0.3,0.1,1.6-0.4,1.6-0.4l1.1-1.4l0.4-0.7l0.3-1.3l0.3-0.6
	l0.8-0.4l0.8-0.6l0.5-0.9l0.1-1.1l0.1-0.9c0,0,0.1-0.4,0.4-0.6c0.3-0.2,0.2-0.8,0.5-0.9c0.3-0.1,0.5-1,0.5-1s-0.2-0.8,0.3-1
	c0.5-0.2,0.5-1,0.5-1l0.7-0.9l0.1-1l0.1-2.3c0,0,0.4-1.5-0.7-0.6c-1.1,0.9-1.1,0.9-1.1,0.9l-0.7,0.5H283c0,0-0.3-0.1-0.6,0
	c-0.3,0.1-0.8,0.4-0.8,0.4s0,0.1-0.7,0.2c-0.7,0.1-0.9,0-1.3,0.1c-0.4,0.1-0.4,0.1-0.4,0.1s-0.7-0.4-0.9-0.7c-0.2-0.3-0.4-1-0.4-1
	l0.1-0.7l0.3-0.7l-0.3-0.6l-0.4-0.4l-0.5-0.2c0,0-0.7-0.8-1-1c-0.3-0.2-1-1.4-1-1.4s-0.2-0.1-0.5-0.2c-0.3-0.1-0.5-0.9-0.7-1.3
	c-0.2-0.4-0.2-1.4-0.2-1.4V192c0,0,0-0.7-0.6-0.9c-0.6-0.2-0.1-0.1-0.6-0.2c-0.5-0.1-0.5-0.1-0.5-0.1l-1-1.6l-0.3-0.7l0.5-0.9
	l0.1-1.1l-0.3-0.6l-0.3-0.4l-0.4-0.5l-0.4-0.6l-0.4-0.5l-0.4-0.9v-0.8c0,0-0.3-0.7-0.6-1c-0.3-0.3-0.7-0.8-0.7-0.8s-0.2-1.2-0.5-1.4
	c-0.3-0.2-0.7-0.5-0.7-0.5l0.6-1.2c-0.1-0.4-0.8-0.8-0.8-0.8l-0.5-1l-0.3-1.3L265.4,171.1z"/>
<path fill="#DDDDDD" d="M285.4,233.6l0.4,1.3l0.3,0.7v0.4l0.1,0.7l0.1,0.7l-0.3,0.3l-0.6-0.1v0.5v0.8l0.4,0.3h0.3
	c0,0,0.7-0.1,0.7,0.2c0,0.3-0.1,0.9-0.1,0.9l-0.5-0.1l-0.7,0.4l0.4,0.4l-0.2,0.3l-0.6,0.3c0,0-0.3,0.2-0.3,0.3
	c0,0.1,0.2,0.2,0.2,0.4c0,0.2,0.1,0.4,0,0.5c-0.1,0.1-0.2,0.1-0.3,0.2c-0.1,0.1-0.2,0.3-0.2,0.4c0,0.2,0,0.3,0.1,0.5
	c0.1,0.2,0,0,0.1,0.2c0.1,0.2,0.1,0.1,0.1,0.3c0,0.2,0,0.1,0.1,0.6c0.1,0.4,0,0.7,0,0.7s-0.3,0.1-0.4,0.3c-0.1,0.2-0.1,0.2-0.2,0.3
	c0,0-0.2-0.1-0.3,0c-0.1,0.1,0.1-0.2-0.1,0.1c-0.3,0.3-0.3,0.3-0.3,0.5c0,0.2,0,0.3,0,0.4c0,0.1,0.3-0.2,0,0.1
	c-0.3,0.4-0.2,0.4-0.4,0.5s-0.1,0.1-0.1,0.1s-0.1,0.1-0.1,0.4c0,0.3,0,0.4,0,0.5c0,0.1,0,0.1,0,0.1l-0.1,0.1c0,0-0.5,0-0.5,0.1
	c0,0.1,0,0.3,0,0.4c0,0.1,0,0,0,0.2c-0.1,0.2,0,0.3-0.1,0.4c-0.1,0.1-0.1,0.1-0.1,0.1s-0.1,0.1-0.3,0.2c-0.1,0.1-0.4,0-0.6,0.2
	c-0.2,0.1-0.1,0.1-0.4,0.1c-0.3,0,0.1-0.1-0.3,0c-0.4,0.1-0.6-0.2-0.6-0.2l-0.3-0.4l0-0.5c0,0-0.2-0.3-0.3-0.3
	c-0.1,0-0.3,0.1-0.3,0.1l-0.4-0.2l-0.2-0.6l-0.4-0.3V248l-0.5-0.3l-0.2-0.7l-0.1-0.7l-0.2-0.8l0.1-0.7l0.3-0.3l0.8-0.4l0.2-0.4
	l-0.4-0.4l0.3-0.1l0.6-0.7l0-0.5l-0.6-0.3c0,0-0.1-0.2-0.1-0.3c0-0.1-0.1-0.6-0.1-0.6v-0.4v-0.7l0.2-0.4h0.5l0.2-0.5l0-0.4l0.5,0.1
	l0.8-0.1l0.4-0.2l-0.1-0.6l0.5,0.1h0.3l0.3-0.2l0.4-0.1l0.1-0.4l0.2-0.2l0.4,0l0.3-0.5l0-0.4l0.3,0h0.3l0-0.2l0-0.5l0.3-0.3l0.4,0
	l0.1-0.3l0.1-0.4L285.4,233.6z"/>
<path fill="#DDDDDD" d="M394.7,235.2l-0.1,2.2l-0.5,1.4l-0.4,0.8l0.8,0.8l0.2,1.4l-0.6,0.4c0,0-0.4,0.7-0.4,1c0,0.3,0-0.2,0,0.3
	c0,0.5,0.2,0.8-0.2,1.1c-0.4,0.3-1.1,0.4-1.1,0.4l-1.1-0.4l0.1-0.4c0,0-0.9-0.8-1.2-1c-0.3-0.2-0.3-0.2-0.3-0.2l-1.3-0.2l-0.1-1.1
	v-0.5l-1.8-0.6l2-1.6l-0.2-0.9l-0.2-1.1l0.1-0.4c0,0-1-0.2-1.6-0.2c-0.6,0-1.2,0-1.5,0.1c-0.3,0.1-2.3,0.1-2.3,0.1l-0.8,0.6
	l-0.3,0.4l-0.9-0.4v0.6v0.7v0.4c0,0-0.5,0-0.5,0.3c0,0.3,0,0.5,0,0.9c0,0.4,0,0.8,0,0.8l-1.9,0.4l-0.1-1.3l-0.3-0.6l-0.8-0.1
	l-1.2,0.6c0,0-0.5,0.1-0.6,0.6c-0.1,0.5-0.1,0.5-0.1,0.5l0,0l-1.3,0.2c0,0.3,0,1.1,0,1.1s0.1,0.1,0,0.4c-0.1,0.3-0.1,0.3-0.1,0.3
	l-1.3-0.2c0,0-0.1,0.4-0.3,0.7c-0.2,0.3-0.2,0.3-0.2,0.3l-1.4-0.3l0.2,1.1l0.3,0.4l0.2,0.4c0,0-0.5,0.2-0.9,0.3
	c-0.4,0.1-0.3,0.9-0.3,0.9l-0.1,0.5l-0.8,0.4h-0.5c0,0-0.6-0.3-1,0c-0.4,0.3-0.4,0.3-0.4,0.3v0.5l-0.1,0.4l-0.9,0.2l-0.7-0.2
	l-0.6,0.1c-0.4,0.8-0.4,0.8-0.4,0.8l0,0c0,0-0.4,0.2-0.7,0.2c-0.3,0-0.3,0-0.3,0l-0.7,0.3l-0.4,0.2c0,0-0.1-0.1,0,0.6
	c0.1,0.7,0.6,0.3,0.1,0.7c-0.5,0.4,0.1,0.2-0.5,0.4c-0.6,0.2-0.3,0.1-0.6,0.2c-0.3,0.1-0.3,0.1-0.3,0.1l0,0c0,0-0.6-0.3-0.6,0.3
	c0,0.6,0,0.1,0,0.6c0,0.5,0,0.5,0,0.5s-0.2,0.2,0,0.5c0.2,0.3,0-0.2,0.2,0.3c0.2,0.5,0,0.1,0.2,0.5c0.2,0.4,0.2,0.4,0.2,0.4l0.3,0.4
	c0.1,0.8,0.5,0.3,0.5,0.9c0,0.6,0.7,0.3,0,0.6c-0.7,0.3-1.3,0.1-1.3,0.1s0.1-0.4-0.4,0c-0.5,0.4-0.9,0.7-0.3,0.9
	c0.6,0.2,1.2,0.2,1.2,0.2c0.2,0.5,0-0.1,0.2,0.5c0.2,0.6,0.2,0.6,0.2,0.6s0.2,0,0.4,0.6c0.2,0.6,0.1-0.1,0.2,0.6
	c0.1,0.7,0.1,0.7,0.1,0.7l0.5,0.5c0.5,0.7,1.1,0.8,1.1,0.8s0,0,0.1,0.5c0.1,0.5,0.1,0.5,0.1,0.5s-0.5,0.3-0.6,0.6
	c-0.1,0.3,0,0.3-0.2,0.7c-0.2,0.4-0.2,0.4-0.2,0.4l0.6,0.4c0.4,1.3,0.4,0.9,0.4,1.3c0,0.4,0.4-0.1,0,0.4c-0.4,0.5,0-0.1-0.4,0.5
	c-0.4,0.6-0.4,0.6-0.4,0.6l-0.5,0.1c0,0-0.2,0-0.5,0.3c-0.3,0.3-1-0.4-0.3,0.3c0.7,0.7,1.5,0.7,1.5,0.7c0.4,0.4,0.8,0.5,0.8,0.5
	s0.4,0,0.9,0.1c0.5,0.1,0.9,0.1,1.3,0.1c0.4,0,1.2-0.6,1.3,0c0.1,0.6,0.5,0.8,0.5,0.8l0.7-0.3l0.8-0.6c0,0,0.5-0.3,0.8-0.3
	c0.3,0,0.8-0.4,1.4-0.4c0.6,0,1.9-0.3,1.9-0.3l0.5-0.3l0.6-0.5l1.1-0.3l0.9-0.3l1.5-0.4l0.6,0.3l1,0.4l1.3-0.7l0.8-0.6
	c0.3,0.3,1.9,0.1,1.9,0.4c0,0.3-0.5-1,0,0.3c0.5,1.3,1.8,1.4,1.8,1.4h0.6c0.1,0.3,1.3,0.2,1.3,0.6c0,0.4,0-0.1,0,0.4
	c0,0.5,0-0.3,0,0.5c0,0.8-1,0.3,0,0.8c1,0.5,2,0.2,2.1,0.5c0.1,0.3,0.8,0.1,0.6,0.4c-0.2,0.3-0.4-0.5-0.2,0.3s1.3,1.1,0.9,1.3
	c-0.4,0.2-0.9-0.2-0.4,0.7c0.5,0.9,1.3,0.9,1.3,1.2c0,0.3,0.1-0.3,0.8,0.3c0.7,0.6,1.6,0.6,1.6,0.6s-0.3-0.3,0.4,0.4
	c0.7,0.7,0.6,0.1,1.2,0.7c0.6,0.6,0.8,0.4,1.3,0.9c0.5,0.5-0.5,0,0.5,0.5c1,0.5,1.3,0,1.3,0s1.2-0.4,0.9-0.7
	c-0.3-0.3,0.5-0.9,0.9-1.3c0.4-0.4,1.9-1.5,1.9-1.5l0.4-0.2c0,0,0.7-0.5,1-0.9c0.3-0.4,0.8-1.6,1-1.9c0.2-0.3,0.5-1.6,0.5-1.6
	s1.1-1,1.4-1.1c0.3-0.1,0.5-1.3,0.8-1.6c0.3-0.3,0.6-1.5,0.6-1.5l-0.8-1.1l0.2-1l0.7-1.8l-0.2-0.6c0,0-0.1-0.3-0.6-1.2
	c-0.5-0.9-1.1-2.5-1.1-2.5l0.2-1l0.1-1.2c0,0,0.2-0.7-0.4-0.7c-0.6,0-1.1-0.5-1.1-0.5s-0.6-0.8-0.7-1.1c-0.1-0.3-0.5-0.8-0.5-0.8
	v-1.2c0,0-0.3-0.5,0-0.6c0.3-0.1,0.5-0.3,0-0.8c-0.5-0.5-0.7-1-0.7-1s0.5-0.7-0.6-0.7c-1.1,0-1.3,0.2-1.5-0.4
	c-0.2-0.6-0.8-1.4-0.8-1.4s-0.1-0.7-0.2-1.1c-0.1-0.4,0.5-0.5-0.7-0.9c-1.2-0.4-1.3-0.3-1.6-0.5c-0.3-0.2-0.3-0.2-0.3-0.2l-0.5-1.4
	l0.2-0.5l-0.2-1.6c0,0-0.4-0.7-0.1-0.7c0.3,0,0.3,0,0.3,0l0.2-0.4c0,0-0.1-0.6-0.7-0.7c-0.6-0.1-1-0.4-1-0.4s0.1-0.9,0.1-1.2
	c0-0.3,0-1.2,0-1.2s-0.2-0.1-0.2-0.4c0-0.3-0.8-1-0.8-1L394.7,235.2z"/>
<path fill="#DDDDDD" d="M208.3,107l0.3,1.2l0.7,0.5l0.2,0.7l-0.4,0.9c0,0,1.3-0.2,0.7,0.4c-0.6,0.6-0.6,0.6-0.6,0.6l-1.1,0.5h-1
	l-0.4,0.4l0.1,0.4l-1.1-0.4l-0.5,0.4v1l-1-0.3l-1.2-0.1l-0.5-0.3c0,0-0.8,0.7-0.7,0.3c0.1-0.4,0.2-1,0.2-1l-0.6,0.1l-1.1,0.3
	l-0.7-0.5l1.3-1.2v-0.4l-0.6-0.2l-1.1,0.4l-0.7,0.3l-0.4-0.9l1.6-0.6v-0.7l-0.8,0.1v-0.8l0.2-0.5l0.7-0.4l0.8,0.3l0.6,1.3l1.1,0.3
	v-1.3c0,0-0.2-0.3,0.7-0.2c0.9,0.1,1.8,0.3,1.8,0.3l0.2,0.6l1.2-0.5l0.7-1l1.4-0.4V107z"/>
<path fill="#DDDDDD" d="M255.3,82.3h-1.1l-0.3-0.4l-0.5-0.5h-0.8l-0.1-0.9l0.1-0.7l-0.3-0.3l-0.4,0.2l-0.5-0.1l-0.3-0.3l-0.1-0.3
	h-0.9l-0.5-0.5l0.1-0.4l-0.9-0.1l-0.1-0.9h-0.5l-0.3-0.3v-0.6h-0.3l-0.6,0.1l-0.5-0.6l-0.7,0.1l-0.1,0.7l-0.3,0.5l-0.7,0.1l-0.3-0.3
	l-0.5,0.1l-0.2-0.9l-0.5,0.7l-0.2,0.3h-0.4l-0.1-0.6l-1.3-0.1l0.1,0.7l0.5,0.5l-0.1,0.7l-0.5,0.4l0.5,0.9l0.3,0.4l1.4-0.2
	c0,0,0.8-0.3,0.9-0.1c0.1,0.2,0.1,0.7,0.1,0.7l-0.9,0.1c0,0-0.3,0.1-0.3,0.3c0.1,0.3,0.1,0.5,0.3,0.7c0.1,0.3,0.9,0.5,0.6,0.8
	c-0.3,0.3-0.5,0.4-0.6,0.6c-0.1,0.2-0.7,0.4,0,0.5c0.7,0.1,1.4,0.1,1.4,0.1s0,0.3,0,0.7c0,0.4,0.2,0.7,0.2,0.7s0.6-0.1,0.8-0.2
	c0.2-0.1,1.3-0.4,1.3-0.4l0.5-0.1v-0.5l0.7-0.2l0.1-0.7l0.6-0.2l0.6-0.5l0.1-0.6l0.2-0.4l-0.2-0.5l0.5,0.3l0.6,0.5l0.1,0.7l0.1,0.7
	c0,0,0.7-0.1,0.9,0.2c0.2,0.3,0.8,0.3,0.8,0.3l1.8,0.3l-0.1-0.4l0.4-0.3l0.5-0.1L255.3,82.3z"/>
<path fill="#DDDDDD" d="M259.3,75.4v0.8l-0.4,0.3l-0.5,0.5c0,0-0.3,0.1-0.3,0.3c0,0.2-0.1,0.6-0.1,0.6l-0.5,0.1h-1.1v0.4l-0.5,0.1
	l-0.8,0.1l-0.4,0.3l-0.5-0.1l-0.7-0.5l-0.1,0.4l-0.1-1.1l-0.7,0.3h-0.9l-0.6-0.4l-0.5,0.5l-0.3-0.5l0.1-0.6l0.9-0.1v-0.4l-1-0.1
	l-0.3,0.5l-0.3-0.1l-0.2-0.7l0.3-0.9l0.7-0.1l0.3-0.9l0.7,0.1l0.8,0.5l0.7,0.5l1.2-0.1l0.7-0.1l0.5,0.4l0.7-0.3l0.5-0.3l0.7,0.3
	l0.6,0.1h0.4H259.3z"/>
<path fill="#DDDDDD" d="M265.4,171.1l2.2-0.3v-1.3l0.8-0.6l0.3-2.2l0.6-0.8l0.2-1.1l-0.5-2.1c0,0-1.4-1.1-1.7-0.7
	c-0.3,0.4-0.2,1.1-0.2,1.1l-1,0.4l-1.1-0.1l-0.7-0.8c0,0,0.1-0.8-0.2-0.6c-0.3,0.2-1.1,0.6-1.1,0.6l-0.6,0.5l-1.9,0.1l-0.5-1.1
	l-1.3-0.2l0.1-1.6l-0.6-1l-0.1-1.9l-0.1-1.1l-0.5-0.6l-1.9-0.6l-0.8,1.1l-0.5,0.9c0,0-0.8,1.1-0.5,1.1c0.3,0,1.6,0.6,1.6,0.6l0.7,1
	l-0.4,1.2l-0.6,0.8l-1.1,0.5l-1.3-0.9l-0.8-1.6l-0.9-0.9l-0.8-0.9l-0.3-0.9l-0.1-1.2l-0.9-1.6c0,0-0.3-1.5-0.7-1.6
	c-0.4-0.1-1.4-0.5-1.4-0.5l-1-1l-1.1-1l-1-0.6l-0.7-1.3l-1.5,0.6l-0.4-1.7l-0.2,2.3l1.8,1.2l0.1,0.7l-0.1,0.7l0.9,0.2l0.3,0.7
	l0.5,0.7l1-0.1l0.3,0.6l0.7,0.9l0.6,0.3l0.6,0.5l0.1,0.5l-1.5,0.2c0,0-0.1,0.6-0.1,0.8c0,0.2,0.3,0.5,0.3,0.5l-0.1,0.7l-0.1,0.7
	l-0.5,0.5l-0.9,0.5l-0.1,0.3c0,0,0.1,0.2,0,0.5c-0.1,0.3-0.5,0.9-0.5,0.9l-0.7,0.1l-0.7-0.3c0,0,0.5-0.4,0-0.4c-0.5,0-1-0.2-1-0.2
	l-0.4-0.7l-0.2-0.6l1.1,0.3l1.1,0.3l0.6-0.5l0.9,0.1l0.5-0.8l-0.1-0.8l-0.4-0.4l-0.5-0.7l-0.2-0.7l-0.7-0.3l-0.3-0.7l-0.5-0.5h-1.1
	l-0.3-0.5l-0.4-0.4l-0.5-0.7h-0.7l-0.2-1.1l-0.5-0.5V151l-0.7-0.7l-0.3-0.7l-0.7-0.2l-0.8-0.1l-0.3,0.4l-0.7,0.1v0.9l-0.5,0.4
	l-0.7-0.3v0.8l-0.5,0.5l-0.5-0.5l-0.7-0.7l-0.3-0.2l-0.5,0.4l-0.4,0.5v0.4c-0.3,0.5-0.5,0.9-0.5,0.9l-0.7,0.5v0.7v0.7l-1.3,0.5
	l-0.9,0.3l-0.4,0.3c0,0,0,0.6,0,0.8s-0.1,0.4-0.3,0.7c-0.2,0.3-0.7,0.5-0.7,0.5s-0.3-0.1-0.3,0.2s0,0.6,0,0.8c0,0.2-0.1,0.6-0.1,0.6
	l-0.8,0.5c0,0,0,0.7-0.1,0.9c-0.1,0.3-0.6,0.9-0.6,0.9l-0.9,0.5l-1.1,0.2l-1.8,0.1h-1.7l-0.9-1l-1.8-0.1l-1.1-0.3v-1.7l-0.3-0.9
	l-0.5-0.5l0.5-0.7c0,0,0.3-0.3,0.3-0.5c0-0.3,0.1-1.3,0.1-1.3v-1l-0.3-1.2l0.5-0.7l-0.1-1.1l-0.7-1l1.5,0.1l0.6-0.6
	c0,0,1-0.2,1.1,0.1c0.1,0.3,0.2,0.6,0.2,0.6l1,0.2l0.3-0.4l0.5,0.1l0.6,0.5l0.9-0.2l0.9-0.1l0.5,0.1l0.7-0.4l0.6-0.1l1.3-0.7
	l-0.3-1.9l-0.6-1.1l-1.1-0.9l-0.3-1.2l-0.6-0.3l-0.7-0.6l-0.7-0.3l-1-0.6l0.3-0.8l1.5-0.5l2.1-0.3l1.1-0.7l1.2-0.7l1-1.2l1.1-0.7
	l0.8-0.7l0.9-0.7l0.9-0.1l0.9-0.2l-0.1-1.3l0.3-0.6l0.5-0.6l0.5,0.2l0.6-0.3h1l0.1,0.3l0.9-0.2l0.9-1.1l1.5-1.4l0.9-0.1l1.1,0.1
	c0,0,1.3-0.6,1.4-0.3c0.1,0.3,0.3,0.7,0.3,0.7l1.7,0.1l0.9-0.4h0.9l1.7-0.1l1.2-0.3c0,0,0.5,0.1,0.5,0.3s1,0.3,1,0.3l0.4-0.9
	l-0.1-0.8l0.5-0.7l0.5-0.1l0.5-1.1l-0.3-1.1l0.4-0.3l0.7-0.9c0,0,0.3-0.7,0.6-0.5c0.3,0.2,1.2,0.1,1.1,0.3c-0.1,0.2-0.1,0.2-0.1,0.2
	l0.6,0.5l0.5-1.5l-0.1-1.9l0.1-1.1l1.2-0.8l1.5,0.5l1.1-0.3c0,0-0.1,0.6-0.2,0.9c-0.1,0.3-0.1,1-0.1,1l1,0.1l0.1-1.8l0.1-0.5h0.6
	l0.9-0.5l0.3-0.6l-1.2-0.5c0,0-0.2-0.7-0.4-0.9c-0.2-0.1-1,0.3-1.3,0.6c-0.3,0.3-0.6,0.5-0.8,0.6c-0.2,0.1-1-0.1-1-0.1h-1l-0.4,0.4
	c0,0-0.3,0.5-0.5,0.4c-0.2-0.1-0.9-0.7-0.9-0.7l-0.3-0.9c0,0-0.3-0.3-0.7-0.4c-0.4-0.1-0.4-0.1-0.4-0.1l-0.8-1.3
	c0,0,0.3-0.8,0.3-1.2c0.1-0.4,0-1.4,0-1.4l0.3-0.9l0.8-0.6l0.6-0.5l0.7-0.5l0.5-0.3l0.3-0.5l0.3-0.4l0.5-0.5l-0.2-1.1l-0.4-1.1
	c0,0,0.3-0.3-0.5-0.3c-0.7,0,0.3-0.1-0.7,0c-1.1,0.1-1.1,0.1-1.1,0.1s0-0.1-0.3,0.2c-0.3,0.3-0.1-0.3-0.3,0.3
	c-0.2,0.6-0.1,0-0.2,0.6c-0.1,0.6-0.5,0.5-0.5,0.5c-0.3,0.8-0.4,0.7-0.3,1.1c0.1,0.5,0-0.3,0.1,0.5c0.1,0.7,0.1,0.4,0.1,0.7
	c0,0.3-0.2,0.2-0.5,0.1c-0.3-0.1-0.3-0.1-0.3-0.1s0-0.2-0.1,0.5c-0.1,0.7-0.5,0.3-0.5,0.3l-0.3-0.1c0,0.6,0,0.6,0,0.6
	s0.1,0.1-0.1,0.3s0.6-0.1-0.2,0.2c-0.8,0.3-0.8,0.3-0.8,0.3s0.1-0.6,0,0c-0.1,0.6,0.1-0.1-0.1,0.6c-0.2,0.7,0.2,0.6-0.2,0.7
	c-0.4,0.1-1-0.1-1-0.1c0,0.9,0.1,0.9,0.3,1.2c0.2,0.3,0.3,0.3,0.5,0.5c0.1,0.2,0.2-0.3,0.1,0.2c-0.1,0.5,0.3,0.7,0.3,1.1
	c0.1,0.3-0.6,0.6-0.5,0.9c0.1,0.3,0.7,0.2,1.1,0.5c0.3,0.3,0.7,0.5,0.7,0.5s0.9-0.3,0.7,0.1c-0.2,0.4,0,0.4-0.9,0.6
	c-0.9,0.2-0.9,0.2-0.9,0.2s0.1-0.5,0,0c-0.1,0.5-0.3,0.1-0.1,0.5c0.2,0.4,0.3-0.1,0.2,0.4c-0.1,0.5,0.4,0-0.1,0.5
	c-0.5,0.5-0.1,0.5-0.5,0.5c-0.4,0-0.4,0-0.4,0s-0.3-0.3-0.9-0.1c-0.6,0.1-0.7-0.4-0.6,0.1c0.1,0.5-0.1,0.1,0.1,0.5
	c0.3,0.4,0.6-0.3,0.3,0.4c-0.3,0.7,0,0-0.3,0.7c-0.3,0.7,0,0.1-0.3,0.7c-0.3,0.5-0.3,0.1-0.3,0.5c0,0.5-0.2,0.1,0,0.5
	c0.2,0.3,0.5,0.4,0.4,0.9c-0.1,0.5-0.1,0.5-0.1,0.5s0.2,0-0.3,0.2c-0.5,0.2,0.1,0.1-0.5,0.2c-0.6,0.1-0.6,0.1-0.6,0.1
	s-0.1-0.3-0.6-0.2c-0.5,0.1-0.4,0.1-0.6,0.5c-0.2,0.3-0.2,0.3-0.2,0.3s0.3,0.1-0.2,0.3c-0.5,0.1-0.5,0.1-0.5,0.1s-0.2,0-0.3,0.3
	c-0.1,0.3,0.6,0.5-0.1,0.3c-0.7-0.1-0.3-0.3-0.7-0.1c-0.3,0.1-0.3,0.1-0.3,0.1s0.3,0.3,0,0.3c-0.3,0,0.1-0.2-0.3,0
	c-0.5,0.2-0.1,0.1-0.5,0.2c-0.3,0.1-0.3,0.1-0.3,0.1s-0.7,0.1-1.5,0.2c-0.8,0.1-1.4,0.2-1.4,0.2s-0.5-1-0.8-1.1
	c-0.3-0.1-0.8-0.8-0.8-0.8l0.3-1.1l0.7-0.9l0.5-0.6l0.5-0.5l0.1-0.5l1.7-0.7v-0.9l-0.2-1.1c0,0-1.3,0.3-1.5,0.4
	c-0.3,0.1-0.2-0.3-0.3,0.1c-0.1,0.5,0.6,0-0.1,0.5c-0.7,0.5,0.1,0.1-0.7,0.5c-0.8,0.3-0.9,0.9-1.3,0.9c-0.4-0.1-0.1-0.3-0.9-0.3
	c-0.8,0-0.8,0-0.8,0l-0.9-1.6l0.3-0.8c0,0,0.1-0.5-0.5-0.5c-0.6-0.1-0.6-0.1-0.6-0.1s0.3-1,0.5-1.3c0.1-0.3,0.1-0.9,0.1-0.9
	s0.1-0.4,0-0.9c-0.1-0.5-0.3-1.3-0.3-1.3l0.1-0.5c0,0,0.5-0.3,0.9-0.5c0.4-0.2,0.8-0.2,1-0.5c0.2-0.3,0.7-0.5,0.7-0.5
	s-0.1-0.2,0.3-0.3c0.3-0.1,0.7-0.6,0.7-0.6s0.5-0.1,0.7-0.1c0.2-0.1,0.5-0.1,0.5-0.1l2.2-0.8l-0.1-1.1c0,0,0.3-0.7,0.6-0.7
	c0.3-0.1,1.9-1.5,1.9-1.5l0.8-1.3l1.6-0.9l0.8-0.8l0.3-1l0.4-1l-0.1-1.1c0,0-0.2-0.8,0.5-0.3c0.7,0.5,0.7,0.5,0.7,0.5l0.3-1.1v-0.5
	v-0.6c0,0,0.3-0.3,0.7-0.4c0.3-0.1,0.1-0.4,0.3-0.1c0.2,0.3,0.2,0.3,0.2,0.3l0.5-1c0,0-0.2-0.7,0.1-0.8c0.3-0.1,0.2-0.4,0.9-0.2
	c0.7,0.2,0.2-0.1,0.7,0.2c0.5,0.3,0.9,0.1,1.1,0c0.2-0.1,0.6-0.9,0.6-0.9l0.5-0.7c0,0,0.8-0.3,1.1-0.1c0.3,0.2,1.7-0.1,1.7-0.1
	l0.9-0.5l0.6,0.1c0,0,0.1-1.5,0.5-1.4c0.3,0.1,1.1,0.7,1.1,0.9c0.1,0.2,0.1,0.2,0.1,0.2l1.9,0.1l0.5-0.4l0.4,0.7
	c0.3,0.4,1.2,0.5,1.2,0.5l0.5-0.1c0,0,0.3,0.1,0.2,0.5c-0.1,0.4-0.4,0.1-0.1,0.4c0.3,0.3,0.9,0.3,1.1,0.4c0.2,0.1,1.1,0.1,1.1,0.1
	c-0.1,0.7,0.2,0.2-0.1,0.7c-0.3,0.5-0.4,0.7,0.3,0.7c0.7,0,2.1,0,2.1,0s0.5-0.3,0.7,0.2c0.1,0.5,0.2,0.1,0.1,0.5
	c-0.1,0.3-0.3,0.2-0.1,0.3c0.2,0.1,1.4,0.1,1.4,0.1l0.3-0.4c0,0,0.5-0.3,0.6,0.3c0.1,0.6-0.3,0.2,0.1,0.6c0.4,0.4,1.1,0.2,1.2,0.4
	c0.1,0.2-0.1-0.1,0.1,0.2c0.3,0.3,0.1-0.1,0.6,0.5c0.5,0.6,0.5-0.5,0.9,0.7c0.4,1.2,0.7,0.5,0.7,1.3c0,0.9-0.7,0.1,0,0.9
	c0.7,0.8,0.7,0.6,0.7,0.8c0,0.2-0.1,0.2-0.8,0.3c-0.7,0.1-0.5-0.2-0.7,0.1c-0.3,0.3-0.1,0.3-0.5,0.4c-0.5,0.1-1.7-0.7-2.6-0.5
	c-0.9,0.2-0.3,0.3-0.9,0.2c-0.5-0.1-1.6-1.1-1.6-1.1s0-0.5-0.3-0.5c-0.3-0.1-1-0.3-1.3-0.4c-0.3-0.1-0.5-0.8-0.7-0.3
	c-0.2,0.5-0.2-0.2,0.1,0.7c0.3,0.9-0.1,0.3,0.6,1.1c0.7,0.8,0.7,0.1,1.3,0.8c0.5,0.7-0.3,0.1,0.5,0.7c0.9,0.5,0.7-0.1,0.9,0.5
	c0.1,0.6,0.5,0.3,0,0.9c-0.5,0.6-0.5-0.1-0.5,0.6c-0.1,0.7-0.7,0-0.1,0.7c0.6,0.7,0.3,0.5,0.6,0.7c0.3,0.2,0.1,0,0.3,0.2
	c0.2,0.2-0.5,0.2,0.2,0.2c0.7,0,1.5-0.3,1.7-0.3s0.8-0.1,0.8-0.1l0.2-1.7c0,0,0.2-1.4,0.9-0.4c0.7,1,1.1,0.9,1.1,0.9l0.3-0.8v-1
	l0.4-0.4c0,0,0.3-0.2,0.5-0.2c0.2,0,0.3,0,0.6,0c0.3,0,0.7-0.6,0.7-0.6l0.4-0.3l0.1-0.3c0,0,0.8,0.1,0.8,0.7c0,0.7,1.5-0.5,1.5-0.5
	l0.3-1.5l-0.3-0.5l0.4-1.5c0,0,0.3-0.8,0.7-0.9c0.3-0.1,0.8-0.5,0.8,0.3c0,0.8,0.4,0.6,0.3,1.1c-0.1,0.5-0.7,0.7-1,0.9
	c-0.3,0.1,0.1-0.4-0.3,0.1c-0.4,0.5-0.9-0.3-0.4,0.5c0.5,0.9,1.3,0.9,1.5,0.9c0.2,0,1.3,0,1.3,0l0.7-1v-0.9c0,0-0.3-0.1,0.2-0.3
	c0.5-0.2,1.4-0.7,1.7-0.6c0.3,0.1,0.3,0.1,0.3,0.1s0.6-0.1,0.9-0.4c0.3-0.3,0.7-1,0.7-1l1.1-0.1c0.3,0.7,0.7,0.3,0.7,0.3
	s0.5-0.9,0.8-0.9c0.3-0.1,0.2-1.1,0.3-0.1c0.1,1.1,0.2,1.2,0.4,1.1c0.2-0.1,0.4,0,0.7,0c0.3,0,1.7-0.5,1.7-0.5s0.4,0.1,0.6,0
	c0.2-0.1,1.3-0.4,1.3-0.4s0.2-0.4,0.3,0.1c0.1,0.5,0.3-0.1,0.5,0.6c0.1,0.7-0.2,0.5,0.1,0.7c0.3,0.2,1.3-0.3,1.2-0.5
	c-0.1-0.2-0.3-0.4-0.1-0.2c0.1,0.2,1.1,0.3,1.1,0.3l0.4,0.1l0.3-0.9v-1l0.2-0.5l0.6-0.1c0,0,1-0.6,1.2-0.3c0.2,0.3,0.3,0.1,0.5,0.3
	c0.1,0.2,1,0.3,1,0.3s0.1-0.5,0.4-0.2c0.3,0.3,1,0,1.3,0.2c0.3,0.2,0.1,0,0.3,0.5c0.2,0.5-0.3-0.1,0.2,0.5c0.5,0.5,0.9,0.7,1.1,0.7
	c0.2-0.1-0.3-0.7,0.2-0.1c0.5,0.6,1.1,0.6,1.1,0.6s1.1,0.1,1.2-0.1c0.1-0.2-0.1-1.3-0.1-1.3l-0.3-0.8c0,0,0.5-0.6-0.2-0.7
	c-0.7-0.1-0.4-0.2-0.7-0.1c-0.3,0.1-0.3-0.7-0.3-0.7l0.9-0.5l0.5-0.4c0,0-0.1-0.6-0.3-0.7c-0.2-0.1-0.2-0.1-0.2-0.1
	s-0.5-0.9-0.4-1.2c0.1-0.3,0.3-0.7,0.5-0.6c0.3,0.1,1.3-0.7,1.3-0.7l0.3-0.9l0.5-0.9l0.7-0.7c0,0,0.4-2.3,0.7-1.9
	c0.3,0.5,0.9-0.1,0.7,0.8c-0.2,0.9-0.5,0.3-0.2,0.9c0.3,0.5,1.3,0.6,1.5,0.7c0.3,0.1-0.1,0.2,0.3,0.1c0.4-0.1,0.4-0.6,0.5,0.1
	c0.1,0.7,0.8,0.2,0.1,0.7c-0.7,0.5-0.8,0.3-0.7,0.5c0.1,0.2-0.1-0.5,0.1,0.2c0.1,0.7-0.1,0.4,0.2,0.9c0.3,0.5,0.1,0.1,0.3,0.5
	c0.2,0.5,0.6,0.1,0.2,0.5c-0.4,0.3,0-0.1-0.7,0.3c-0.7,0.4-0.5-0.5-0.7,0.4c-0.2,0.9-0.5,0.5-0.2,0.9c0.3,0.3,0.7,0.4,0.9,0.3
	c0.2-0.1,0.1-0.6,0.2-0.1c0.1,0.5,0.3-0.4,0.1,0.5c-0.3,0.9-0.1,0.2-0.3,0.9c-0.2,0.7-0.5,0-0.2,0.7c0.3,0.7,0.3,0.5,0.6,0.8
	c0.3,0.3,0.1,0,0.3,0.3c0.1,0.3,0.7-0.1,0.1,0.3c-0.6,0.4-0.7-0.3-0.6,0.4c0.1,0.7,0.2,0.3,0.5,0.9c0.3,0.5,0.7-0.3,0.3,0.5
	c-0.4,0.8-0.1,0.3-0.4,0.8c-0.3,0.5-0.4,0-0.3,0.5c0.1,0.5,1.3,0.1,0.5,0.5c-0.8,0.4-0.7,0.3-1.2,0.7c-0.5,0.4,0.1,0.2-0.5,0.4
	c-0.6,0.2-1.1-0.5-1.5,0.2c-0.5,0.7-0.7,0.7-0.2,0.8c0.5,0.1,0.5,0.2,0.9,0.2c0.3,0,1.1-0.3,1.1-0.3c0.6,0.3,1.3,0.3,1.3,0.3
	l0.4-1.5c0,0,0.3-0.6,0.6-0.5c0.3,0.1,0.8-0.9,0.8-1.3s0-1.1,0.1-1.4c0.1-0.3-0.2-0.9-0.2-0.9l-0.4-0.9l-0.1-0.3
	c0,0,0.6,0.1,0.3-0.9c-0.3-1.1-0.4-1.8-0.4-1.8v-0.7l-0.1-0.4v-0.9l0.7-0.7l0.5-0.1c0,0,0-1.1-0.1-1.3c-0.1-0.3-0.3-0.9,0.1-1
	c0.3-0.1,0.1-1,0.3-0.1c0.2,0.9,0.3-0.1,0.2,0.9c-0.1,1-0.1,0.1-0.1,1c0,0.9-0.3,0.4,0,0.9c0.3,0.5-0.1,0.3,0.3,0.5
	c0.3,0.3,0.7,0.2,0.7,0.2c0.1,0.6-0.7,0.6,0.1,0.6c0.8,0,2.1-0.4,2.1-0.4s0.4-0.2,0.3-0.5c-0.1-0.3-0.5-0.8-0.5-0.8
	s-0.2-0.3-0.2-0.7c0-0.4-0.1-0.7,0.3-0.7c0.4,0,0.3-0.5,0.7,0c0.4,0.5,0.6-0.1,0.8-0.1c0.2-0.1,0.5-0.5,0.5-0.5l0.2,0.7l1.7,0.8
	l1.1-0.1c0,0,0.2,0.8,0.2,1.1c0,0.3,0.4,0.5,0.3,1c-0.1,0.5-0.2-0.1-0.1,0.5c0.1,0.6,0.6,0.6,1,0.4c0.4-0.2,1.2-1.6,1.1-1.9
	c-0.1-0.3-0.4-1-0.8-1.1c-0.4-0.1-0.6,0-0.8-0.3c-0.2-0.3-0.6-0.8-0.9-1c-0.3-0.2-0.3-0.2-0.3-0.2l-0.4-1.5l0.5-0.8
	c0,0,0.7-0.1,1-0.2c0.3-0.1-0.3-0.3,0.3-0.1c0.6,0.2,1.3,0.3,1.6,0.2c0.3-0.1,0.8-0.2,1.1-0.2c0.3,0,1.2-0.4,1.5-0.4
	c0.3,0,0.5-0.5,0.5-0.5v-1.3l0.4-0.5c0,0,0.6-0.4,0.9-0.5c0.3-0.1,0.5-0.7,0.5-0.7l0.1-0.6c0,0,0.3-0.3,0.7-0.4
	c0.4-0.1-0.5-0.8,0.4-0.1c0.9,0.7,1.4,0.8,1.4,0.8l0.4-0.5l0.8-0.6c0,0,0.3-0.4,0.6-0.4c0.3,0,1.1-0.4,1.6-0.2
	c0.5,0.2,0-0.3,0.5,0.2c0.5,0.5,1.9,0.5,1.9,0.5l0.6-0.8l0.5-1c0,0,0.3-0.6,0.4-0.2c0.1,0.4,0.1-0.7,0.1,0.4c0,1.1,0,0.6,0,1.1
	c0,0.5,1.2,0.5,1.2,0.5l0.5-0.3l0.7-0.8l0.2-0.6c0,0-0.7-0.7,0.5,0c1.2,0.7,2.7,0.7,2.7,0.7l-0.1-1.7l0.5-0.8c0,0,0.5-0.2,0.9-0.2
	c0.4,0,1,0,1,0h1c0,0,0.7-0.2,0.9,0.4c0.2,0.6,0.7,0.6,0.7,0.6l1.6-0.1c0.4,0.5,0.1-0.2,0.4,0.5c0.3,0.7,0.3,0.7,0.3,0.7l1.8-0.6
	c0,0,0.1-0.8,1.1,0.1c1,0.9,2.3,0.6,2.4,0.9c0.1,0.3,0.7-0.2,0.9,0.2c0.2,0.4,0.7-0.3,0.6,0.7c-0.1,1,0.3,0.4-0.1,1
	c-0.4,0.6,0.1,0.2-0.4,0.6c-0.5,0.4,0,0.6,0.1,1.1c0.1,0.5,1.1,0.3,0.1,0.5c-1,0.2-1.9,0-2.2,0c-0.3,0-2-0.4-2.1,0.1
	c-0.1,0.5,0.5-0.2-0.1,0.5c-0.6,0.7,0.1-0.1-0.6,0.7c-0.7,0.8-0.2-0.2-0.7,0.8c-0.5,1,0.6,0.6-0.5,1c-1.1,0.4,0-0.3-1.1,0.4
	c-1.1,0.7-1,0.3-1.1,0.7c-0.1,0.4-1.1,0.2-0.1,0.4c1,0.2,2.2-0.4,2.2-0.4s0.2-0.4,0.6-0.4c0.4,0,0.9-0.5,1.8-0.9
	c0.9-0.4,0.3-0.3,0.9-0.4c0.6-0.1,0.7-0.5,1.5-0.1c0.8,0.4,0,0.4,0.8,0.4c0.8,0,1.4,0,1.9-0.4c0.5-0.4-0.9-0.9,1.2-0.8
	c2.1,0.1,4.6-0.4,4.3,0.1c-0.3,0.5-0.4,0.5-0.9,1.3c-0.5,0.8-1.5,0-0.5,0.8c1,0.8,1.7,0.8,1.7,0.8s0-0.1,0.4-0.2
	c0.4-0.1,0.6-0.6,1.1-0.4c0.5,0.2-0.2-0.4,0.5,0.2c0.7,0.6-0.2-0.1,0.7,0.6c0.9,0.7,1.3,0.7,1.6,0.5c0.3-0.2,0.6-1,0.6-1V92
	l-0.5-1.2c0,0-0.5-0.8-0.1-0.7c0.4,0.1,0.8-0.2,1.1,0c0.3,0.2,0.4-0.6,0.7,0.3c0.3,0.9-0.4,0.1,0.3,0.9c0.7,0.8,1.3,0.7,1.6,1
	c0.3,0.3,1,0.3,0.3,0.3c-0.7,0-0.3-0.4-1.2,0.1c-0.9,0.5-0.9,0-0.9,0.5c0,0.5-0.5,0.1,0,0.5c0.5,0.4,2.7,0.7,2.7,0.7s0,0,0.4,0.8
	c0.4,0.8,1.5,0.7,1.6,1.1c0.1,0.4,0.4,0.2,0.6,0.5c0.2,0.3-0.2-0.6,0.2,0.3c0.4,0.9,0.4,0.5,0.8,0.9c0.4,0.4,0.8,0.1,0.9,0.4
	c0.1,0.3,0.2,0.2,0.5,0.3c0.3,0.1,0.9-0.3,0.9-0.3s0.2-0.7,0.2-1c0-0.3,0.4-1.4,0.4-1.4s0.5-0.8,0.8-0.7c0.3,0.1,0.7-0.5,0.7,0.2
	c0,0.7,0,0.7,0,0.7l0,0l1.1-0.3v-0.7c0,0.7,2.1,0.7,2.1,0.7l0.7,1.2c0,0,0,0.3,0.5,0.3c0.5,0,2.2-0.7,2.2-0.7l-0.6-0.9
	c0,0,0.5-0.5,0.9-0.4c0.4,0.1,0.3-0.5,0.4,0.1c0.1,0.6-0.3,1.3,0.1,0.6c0.4-0.7,0.9-1.6,0.9-1.6l1-0.8c0,0,0.1-0.5,0.8-0.2
	c0.7,0.3,1.3,0.1,1.7,0.4c0.4,0.3,2.2,0.7,2.2,0.7l-0.7,0.8l-0.4,0.4c0,0,0.2-0.3,0.5,0.1c0.3,0.4,0.3,0.4,0.3,0.4s0.6,0.5,0.9,0.4
	c0.3-0.1,1.1-0.8,1.1-0.8l0.2-0.8c0.7-0.1,0.8-0.2,1.2,0c0.4,0.2,0.4,0.2,0.4,0.2h0.5l0.6-0.2l0.7,0.6l-0.8,1.1l0.5,0.9l0.8-0.4
	l0.7-1.2c0,0,0.3-0.6,0.5-0.2c0.2,0.4-0.1-0.2,0.2,0.4c0.3,0.6,0.3,0.6,0.3,0.6l1.9,1l0.8-1c-0.1,0.6,2.5,1.5,2.5,1.5
	s0.4-1.8,0.4-1.4c0,0.4,1,0.4,1.1,0.7c0.1,0.3,1.4,0,1.4,0c0,0.4,0.4,0.3,0.4,0.3c0.3,0.4,0.3,0.4,0.3,0.4s0.7-0.2,0.7,0.6
	c0,0.8,0.4,1,0.4,1s-0.1,0.1,0.7,0.2c0.8,0.1,2.7,0.2,2.7,0.2l0.3-0.4c0,0,0.2-0.3,1.3,0c1.1,0.3,2.6,0.3,2.6,0.3h1.1
	c0.5,0.5,0.6-0.1,1.2,0.5c0.6,0.6,0.6,0.6,0.6,0.6l0,0c0,0-0.4,0.5,0.6,0.4c1-0.1,3-0.5,3-0.5l-0.8-1.5c0,0-0.3-0.6,0.2-0.7
	c0.5-0.1,0.6-0.4,0.9-0.1c0.3,0.3,1.4,0.1,1.7,0.4c0.3,0.3-0.6-0.4,0.7,0.5c1.3,0.9,3.5,0.4,3.8,1c0.3,0.6,0.3,0.2,0.7,0.6
	c0.4,0.4,0.1-0.1,1.5,0.4c1.4,0.5,1,0,1.4,0.5c0.4,0.5-0.4-0.6,0.8,0.6c1.2,1.2,1.5,0.8,2,1.4c0.5,0.6-0.2,0.3,0.5,0.6
	c0.7,0.3,0.5-0.3,1.6,0.4c1.1,0.7,1.6,0.7,1.6,0.7c0,0.6-0.1-0.2,0,0.6c0.1,0.8,0.1,0.7,0.6,0.7c0.5,0,1.2-0.1,1.2-0.1
	s-0.1-1.3,0.9-0.1c1,1.2,1.5,0.4,1.5,1.2c0,0.8,0.7,0.4,0.7,0.7c0,0.3,1.3-0.5,0,0.3c-1.3,0.8-0.8,0.1-1.3,0.8
	c-0.5,0.7-0.5,0.8-0.5,1.2c0,0.4,0-0.2,0,0.4c0,0.6,1.4,0,0,0.6c-1.4,0.6-0.7,0.5-1.4,0.6c-0.7,0.1-0.6-0.4-1-0.4
	c-0.4,0,0.9-0.1-0.8-0.5c-1.7-0.4-1.2-0.3-1.7-0.4c-0.5-0.1-0.7-0.5-0.7-1c0-0.5-0.1-1.6-0.1-1.6c-0.6-0.1,0.3-1.1-0.6-0.1
	c-0.9,1-0.9,1-0.9,1l-1,0.2l-0.6-0.8c0,0-0.5-2-0.5-1.5c0,0.5-0.1,2.4-0.1,2.4c-0.2,0.4-0.2,0.4-0.2,0.4s-0.6-0.5-1.1-0.1
	c-0.5,0.4-0.5,0.4-0.5,0.4l-1.3,0.2c0.3,1.2,0.9,0.6,0.9,1.2s-0.3,0.2,0,0.6c0.3,0.4,0.4,0,0.7,0.6c0.3,0.6,0.7,0.7,0.7,0.7
	s0,0.4-0.5,0.7c-0.5,0.3-2.1,0.3-2.1,0.3s0.9-0.6-0.7-0.1c-1.6,0.5-1.6,0.5-1.6,0.5s0.7-0.5,0,0c-0.7,0.5,0.2,0.1-0.7,0.5
	c-0.9,0.4-0.7-0.7-0.9,0.4c-0.2,1.1-0.9,1.4-0.9,1.4s-0.1-1.2-0.7-0.6c-0.6,0.6-0.5,0.2-0.6,0.6c-0.1,0.4,0.2-0.4-0.1,0.4
	c-0.3,0.8-0.3,0.8-0.3,0.8l-0.6,0.5c0,0,0.5-1.9-0.5-0.5c-1,1.4-1.2,2.6-1.2,2.6l-1.4-1.5c0,0,0.5-1.2-0.1-1.1
	c-0.6,0.1,0.4-0.4-0.6,0.1c-1,0.5-1,0.5-1,0.5s-0.2-0.2-0.5-0.2c-0.3,0-2.9-0.6-2.7-0.2c0.2,0.4,0.5-0.6,0.2,0.4c-0.3,1,0.7,1-0.3,1
	c-1,0-0.2-0.6-1,0c-0.8,0.6-1.8-0.7-0.8,0.6c1,1.3-0.5,1-0.9,1.2c-0.4,0.2-0.8-0.3-0.4,0.2c0.4,0.5,1.5-1.7,1.2,0.5
	c-0.3,2.2-1.5,3.2-1.5,3.8c0,0.6,0.5,0.5,0.4,1c-0.1,0.5-0.1-0.8-0.1,0.5c0,1.3,0,0.7,0,1.3c0,0.6,1,0.1,0,0.6c-1,0.5-1.4-1.4-1,0.5
	c0.4,1.9,0.5,1.1-0.7,1.9c-1.2,0.8,0.1-1.1-1.2,0.8c-1.3,1.9-2.6,3.4-3.2,3.6c-0.6,0.1-1.1-0.5-1.1-0.5l0.1-1l-0.5-1.1l-0.6-1.9
	l0.4-1.1l-0.1-1.7c0,0,0.3-1.6,0.5-1.7c0.2-0.1,0.5-1.1,0.7-1.1c0.2,0,1.2-1.5,1.5-1.7c0.3-0.1,1.2-2.3,1.2-2.3s1.7-1.3,1.8-1.4
	c0.1-0.1,1.1-1.4,1.3-1.6c0.2-0.2,2.1-1.3,2.1-1.3s0.9-1.6,1.1-2.1c0.1-0.5,0.8-2,0.8-2h-1.2l-0.6,1.4c0,0-1,1.3-1.2,1.3
	c-0.2,0-1.3,1-1.3,1l-1.1,0.9l-0.4-1.3c0,0-0.2-1.3-0.4-1.3c-0.2,0-1.5-0.2-1.7-0.1c-0.2,0.1-1.8,1.4-1.8,1.6c0,0.2-0.9,1.1-1.1,1.5
	c-0.2,0.3-0.3,0.9-0.5,1.3c-0.1,0.3-1.2,1.7-1.5,1.7c-0.3,0-2.8,0.1-2.9-0.1c-0.1-0.2-2.8-1.4-2.8-1.4s-2.5,0.2-2.8,0.2
	s-2.5,0.1-2.7,0.1c-0.2,0-3.6,0.3-3.6,0.3s-0.7,1.9-0.9,2.3c-0.2,0.5-1.3,1.8-1.7,2.3c-0.3,0.5-1.7,1.5-2,2
	c-0.3,0.5-1.7,1.9-1.7,2.4c0,0.5,1,1.3,1.1,1.5c0.1,0.2,1.5-0.3,1.5-0.3l1.2,0.7c0,0,1.7,1.2,1.5,1.1c-0.2-0.1,1-0.1,1,0.5
	c0,0.5-0.1,3.3-0.4,4.1c-0.3,0.8,0.1,2.4-0.3,3.5c-0.4,1.1-0.3,1.6-1.1,2.4c-0.8,0.8-2.8,2.9-3.3,3.6c-0.5,0.7-1.6,2.1-2,2.9
	c-0.4,0.8-1.5,2.1-1.9,2.3c-0.4,0.1-1.9-0.4-1.9-0.4l-0.9-1.2c0,0-1.9,1.6-1.9,2s-0.3,0.9,0,1.3c0.3,0.4-0.4,1.5-0.4,1.5
	s-0.7,0-1.1,0.5c-0.4,0.5-0.4,1.5-0.4,1.5l1.1,1.5l-0.4,2.9l-0.1,1.6l-2.3,1.2l-2.4-1.3l2.3-3.1l-0.1-0.7l-0.5-0.4l-1.6-0.9
	l-0.5-1.5c0,0,0-1.3-0.7-1.1c-0.7,0.3-1.2,0.3-1.9,0.5c-0.7,0.3-0.7,0.3-0.7,0.3l-1.2-2.1c0,0-0.5,0.1-1.7,1.1
	c-1.2,0.9-1.6,1.7-1.9,2.3c-0.3,0.5-0.4,1.1,0.3,1.5c0.7,0.4,2.8,1.1,2.8,1.1l3.2,0.4c0,0,1.3-0.1,0.7,0.5c-0.7,0.7-1.9,1.1-2.9,1.2
	c-1.1,0.1-0.4-0.4-1.1,0.1c-0.7,0.5-1.1-0.3-0.8,1.2c0.3,1.5,1.2,1.5,1.5,2.7c0.3,1.2,0.3,0.8,0.7,2.7c0.4,1.9,0.8,0.5,0.9,2.7
	c0.1,2.1,1.1,0.5,0.1,2.1c-0.9,1.6-2.5,3.5-2.5,3.5s-1.4,1.4-2.2,2c-0.8,0.6-1.6,1-2.6,2.2c-1,1.2-1.2,1.6-1.8,2.6
	c-0.6,1-2,1-2.8,1.4c-0.8,0.4-3.4-0.4-3.4,1.2c0,1.6-1,4-1,4l-0.4,4c0,0,0.6,0.8,1,2c0.4,1.2,1.2,1,1,2c-0.2,1-0.2,1-0.2,1
	s-0.4,1-1.6,1.8c-1.2,0.8,0-0.4-1.2,0.8c-1.2,1.2-0.2-0.2-1.2,1.2c-1,1.4-1,1.4-1,1.4l-2-1.6l-0.4-1.8l-0.6-1.2l-1.6-1.6l-1.4-1.6
	c-0.2,1.4,0.2,1.6-0.4,3.2c-0.6,1.6-0.6,1.6-0.6,1.6s1,1,0.6,1.6c-0.4,0.6,0,2.8,0.4,4.2c0.4,1.4-2.4-3.4-2.4-3.4v-3V201l0.2-2.2
	l0.2-1.8l-1.8-3l-2-0.4l-2,0.6v-2.4l-0.2-1.8l-1.4-1.8l-1.6-2.8c0,0,0.6-1.8-0.8-1.2c-1.4,0.6-4.6,2-4.6,2l-0.8,2.2c0,0-0.4,2-1,2.4
	c-0.6,0.4-2.6,2.4-2.6,2.4s-2.2,0.8-2.6,1.8c-0.4,1-1,3.2-1,3.8c0,0.6,0,2.8,0,2.8l-1,3l-1.2,1.8l-2.4-1.8l-1.8-4.8l-1.4-4.4l-1-3
	l-0.4-3.6v-3.2l-1.2,0.6l-1.8-1.2l-0.8-1.6l-2.2-1.4l-1.4-1.2l-5.2,0.6l-3.2-2.6l-1.8-0.8l-1.2-0.8l-3.6,0.8l-1.6-2.2l-3.2-2.8
	l-2.4,0.2l2,3.2l2.6,3.8l2.2,1l4-0.6c0,0,0.8,1,1.2,1.8c0.4,0.8,2.2,2.2,2.2,2.2l0.8,2.8c0,0-0.6,1.8-1.8,2.6
	c-1.2,0.8-2,0.6-3.2,1.4c-1.2,0.8-0.8,0.4-2,1.4c-1.2,1-1.6,1.4-1.8,2c-0.2,0.6-0.2,0.6-0.2,0.6s-2.2,0.4-2.8,0.6
	c-0.6,0.2,1.8-1.2-0.6,0.2c-2.4,1.4-2.4,1.4-2.4,1.4l0,0l-3.6-0.8l-2-3.4l-2-3.2l-2.8-5.2v-2.2l-1.4-2.8l-1.6-3l-1.6-1.4h-1.7
	L265.4,171.1z"/>
<path fill="#DDDDDD" d="M398.7,139.8l-1.2-0.4l0.1-1.2l-0.1-0.4l-0.3-1.7l-0.1-1.7l-0.3-1.9l-0.2-1c0,0-1,0.9-1,1.2
	c0,0.3-0.1,0.7-0.1,0.7s0,1,0,1.4c0,0.4-0.1,1.1-0.1,1.4c0,0.3,0.1,0.4,0.1,1.5c0,1.1,0.1,1.4,0.1,2c0,0.6,0.1,1.6,0.1,2.4
	c0,0.8,0,1.5,0,1.9c0,0.4,0,0.5,0,1.2c0,0.7,0.2,1.4,0.2,1.4l0.4-0.5c0,0,0.4-1.2,0.5-1.5c0.1-0.3,0-1.4,0-1.4l0.4-1l0.6-0.5
	l0.2-0.7h0.5L398.7,139.8z"/>
<path fill="#DDDDDD" d="M398.5,151.3c0,0-0.7-0.8-1.1,0.4c-0.4,1.2-0.4,1.2-0.4,1.2l-2.3-0.3l-1.2-0.5c0,0-0.3,1.1-0.1,1.5
	c0.1,0.4,0.7,1.2,0.7,1.2s0.3,1.1,0.7,1.2c0.4,0.1,0.5,0.4,0.4,0.9c-0.1,0.5-0.1,0.5-0.1,0.5s-0.3,0.3-0.7,0.9
	c-0.4,0.7-0.4,0-0.4,0.7c0,0.7-0.1,0.5,0,1.3c0.1,0.8,0.1,0.5,0.1,1.6c0,1.1,0.3,1.5,0.1,1.9c-0.1,0.4-0.1,0.4-0.1,0.4
	s-0.1,1.1-0.5,1.2c-0.4,0.1-1.3,0.8-2.1,0.5c-0.8-0.3-1.3-0.5-2.1-0.5c-0.8,0-0.5-0.5-0.8,0c-0.3,0.5-0.4,1.1-0.4,1.1l-0.3,0.8
	c0,0-0.1,0.3-0.7,0.4c-0.5,0.1-1.7,0.7-1.7,0.7l-0.5,0.1c0,0-0.4,0.3-0.9,0.4c-0.5,0.1,0.4-0.4-0.5,0.1c-0.9,0.5-0.9,0.7-1.1,1.2
	c-0.1,0.5,0.1,0-0.1,0.5c-0.3,0.5-0.9,0.1-0.9,0.1l-0.4-1.7l-0.1-0.9c0,0,0-1.3,0.4-1.5c0.4-0.1,1.5-0.7,1.5-0.7l0.9-0.3h0.7
	l1.1-0.7l0.8-0.8c0,0,0.7-0.3,1.1-0.5c0.4-0.3,0.7-0.5,1.2-0.5c0.5,0,0.5,0,0.5,0s0.5-1.1,0.9-1.3c0.4-0.3,0.5-1.2,0.5-1.2l0.8-0.5
	c0,0,0.3-0.3,0.5-0.7c0.3-0.4,0.3-1.2,0.3-1.2l0.7-0.9l0.1-0.7l-0.1-0.9l0.3-0.7c0,0,0,0.3,0.3-0.7c0.3-0.9,0-1.9,0-1.9l-0.7-0.3
	c0,0-0.4-0.9,0-1.1c0.4-0.1,1.2-0.4,1.2-0.4l1.3-0.8l0.4-1.1l0.1-0.9l0.8-0.4c0.5,0.9,0.5,0.9,0.5,0.9l0.1,1.6l0.9,0.1L398.5,151.3z
	"/>
<path fill="#DDDDDD" d="M356,215.1l0.9-0.1l0.3,0.8h0.9l0.6-0.4l0.5-0.8l1-1.2h0.4l0.4,0.3l0.7-0.4l0.2-0.7l0.2-0.8h0.5l1.3-0.5
	v-0.6l0.1-1.2l0.4-0.3l0.3-0.7c0.6-0.3,1.4-0.1,1.4-0.1l0.5,0.6l0.2,0.9c0,0,0.7,0,0.8,0.3c0.1,0.3,0.2,1.2,0.2,1.2
	c-0.6,0.3-1.6,0.6-1.6,0.6s-0.3-0.2-0.3,0.4c0,0.6-0.2,0.2,0,0.6c0.2,0.4,0.2,0.4,0.2,0.4s-0.1-0.2,0.1,0.4c0.2,0.6,0.2,0.6,0.2,0.6
	s-0.3,0-0.1,0.5c0.2,0.5,0.2,0.5,0.2,0.5s0.5,0.7,0.8,0.8c0.3,0.1-0.2,0.8-0.2,0.8s-0.1-0.3-0.4,0.4c-0.3,0.7-0.4,1.1-0.4,1.1
	c0.1,1.1,0.2,1.4,0.2,2c0,0.6,0.3,0.4-0.1,1.1c-0.4,0.7-0.6,0.7-0.8,1S365,223,365,223l-1,0.6c-0.7,0.2-1.7-0.5-1.7-0.5
	s-0.5-0.8-1-0.3c-0.5,0.5-0.5,0.5-0.5,0.5l0,0l-1.3-0.6c0,0-0.1-0.3-0.7,0c-0.6,0.3-1.1,0-1.1,0l-0.4-0.8L357,221l-1-0.8l-1.1-1.8
	l1.3-0.6l-0.6-2.4"/>
<path fill="#DDDDDD" d="M345.5,204.8l1.4,3.2c0,0,1,0.5,1.4,1c0.4,0.5,1.2,0.9,1.3,1.2c0.1,0.3,0.1,0.3,0.1,0.3s0,0.6-0.2,1.2
	c-0.2,0.6-0.1,1-0.1,1l0.6,0.5c0,0,0,0,0,0.4c0,0.4,0.3,1.2,0.3,1.2s0.5,0.3-0.3,0.4c-0.8,0.1-0.8,0.1-0.8,0.1s0.5-0.6,0,0
	c-0.5,0.6-0.6,1-0.6,1.3c0,0.3-0.3-0.3,0,0.3c0.3,0.6,0.6,0.5,0.9,0.9c0.3,0.4,1.1,0.3,1.3,0.9c0.2,0.6,0.3-0.3,0.2,0.6
	c-0.1,0.9-0.3,0.8-0.1,1.3c0.2,0.5,1.5,0.5,1.5,0.5c0.2,0.9,0.5,0.2,0.2,0.9c-0.3,0.7-0.3-0.1-0.3,0.7c0,0.8-0.2-0.2,0,0.8
	c0.2,1,0.2,0,0.2,1c0,1-0.6,0.2,0,1c0.6,0.8,1.8,1,1.8,1c0.4,0.2,3.5,0.2,3.5,0.2s1.1-0.2,0.8,0.5c-0.3,0.7-0.7,0-0.3,0.7
	c0.4,0.7,1.8,0.8,1.8,0.8s0.6-0.2,0.8,0.2c0.2,0.4,1.2-0.2,1.4,0.6c0.2,0.8,1.2,0.9,1.2,0.9s1.3,0.1,1.4,0.4
	c0.1,0.3,0.1,0.3,0.1,0.3l1.8,0.6c-1.2,0.4-6.2-0.9-6.5-0.9c-0.3,0-4.1-0.6-4.1-0.6l-1.4-0.6c0,0-0.9-0.8-1.3-0.8
	c-0.4,0-0.8-0.5-0.8-0.5s-0.1-1-0.6-1.1c-0.5-0.1-1.3-1.4-1.3-1.4l-0.9-0.9c0,0-0.5-1-0.8-1c-0.3,0-1.3-1-1.3-1l-0.5-0.6l-0.5-0.5
	l-0.5-0.9l-0.7-1.1l-0.3-1.3l-0.6-1l-0.4-1.1l-0.6-0.8l-1.2-1.3l-0.9-0.9c0,0-0.4-0.1-0.6-0.6c-0.2-0.5-1.2-1.4-1.2-1.4l-0.4-0.6
	c0,0-0.3-0.7,0.1-0.8c0.4-0.1,1-0.4,1.4-0.2c0.4,0.2,0.1,0.1,0.7,0.7c0.6,0.6,1.4,0.7,1.7,1c0.3,0.3-0.5-0.6,0.3,0.3
	c0.8,0.9,1.6,1.1,1.9,1.1c0.3,0,0.3,0,0.3,0l0.4,0.3l1.7-1l-1.1-1.8l-1.7-1.3L345.5,204.8z"/>
<path fill="#DDDDDD" d="M387.7,221.2l1.6,0.1l1.9,0.8l0.9,0.7c0.7,0.4,1.5,0.7,1.5,0.7l1.3,0.7c0,0,0.1-0.7,0.5-0.4
	c0.4,0.3,0.5,0.1,0.7,0.9c0.1,0.8-0.3,0.3,0.1,0.8c0.4,0.5,0.5,0.8,0.9,0.9s0.5,0.1,0.9,0.5c0.4,0.4,0.1-0.7,0.4,0.4
	c0.3,1.1,0,0.3,0.3,1.1c0.3,0.8,0.4-0.3,0.3,0.8c-0.1,1.1-0.9,0.1-0.1,1.1c0.8,0.9,1.7,1.2,1.7,1.2c0.5,0.8,1.5,0.9,1.6,1.5
	c0.1,0.5,0.1,0.5,0.1,0.5s0.1,0.3-1.1,0.1c-1.2-0.1-0.5,0.3-1.2-0.1c-0.7-0.4-1.2-1.1-1.2-1.1s0-0.3-1.1-0.4c-1.1-0.1-2-0.5-2-0.5
	l-0.8-0.7c-1.6,0.3-0.8,0.3-1.6,0.3c-0.8,0-0.8,0-0.8,0s0,0.1-0.7,0c-0.7-0.1-0.7-0.1-0.7-0.1s-0.3-0.9-0.7-1.2
	c-0.4-0.3-0.4-0.4-1.1-0.3c-0.7,0.1,0.4-0.1-0.7,0.1c-1.1,0.3-1.1,0.3-1.1,0.3s-0.1-1.5,0.3-1.6c0.4-0.1,0.4-0.1,0.4-0.1l-0.7-1.5
	c0,0-0.8-0.5-1.2-0.7c-0.4-0.1,0.7,0-0.4-0.1c-1.1-0.1-0.3,0.1-1.1-0.1c-0.8-0.3-2.4-1.1-2.4-1.5c0-0.4,0.3-0.4,0-0.4
	c-0.3,0,0.7,0.3-0.3,0c-0.9-0.3-0.9-0.3-0.9-0.3l-0.8-1.3v-0.5l-0.4-1.5l-0.5-0.8c0,0-0.5-0.3,0.7-0.4c1.2-0.1,0.8-0.5,1.2-0.1
	c0.4,0.4-0.1-0.4,0.4,0.4c0.5,0.8,0.3-0.1,0.5,0.8c0.3,0.9,0,0.1,0.3,0.9c0.3,0.8-0.3,0.4,0.3,0.8c0.5,0.4,0.5,0.4,1.1,0.5
	c0.5,0.1,1.5,0.1,1.5,0.1s0.5,0.1,0.9,0.3c0.4,0.1,0.8-2.1,0.8-2.1h0.8"/>
<path fill="#DDDDDD" d="M294.5,97.4l-1.9-2.9l0.5-1.6l1.6-3.2l1.3-0.5l3.7-1.3l1.9-1.1c1.6-0.8,2.7-1.1,2.7-1.1l1.6-0.8l1.1-0.5
	c0,0,1.3-1.9,0.3-2.1c-1.1-0.3-2.4,0.5-2.4,0.5s-0.3,0.8-1.3,0.5c-1.1-0.3,1.1-0.8-1.1-0.3c-2.1,0.5-1.9,0.5-2.7,1.6
	c-0.8,1.1,0,0-0.8,1.1c-0.8,1.1-0.8,1.1-0.8,1.1h-1.1c0,0-0.5-0.3-1.6-0.3c-1.1,0-1.1,0-1.1,0s-0.5,0-1.3,0.5
	c-0.8,0.5,0.8-1.3-0.8,0.5c-1.6,1.9-1.6,1.9-1.6,1.9s0.8-1.9,0,0c-0.8,1.9-1.3,0.8-2.1,1.3c-0.8,0.5-1.1-1.1-0.8,0.5
	c0.3,1.6,0.3,1.6,0.3,1.6l0,0l0.3,1.3c-0.3,1.3-0.3,0.3-0.3,1.3c0,1.1,0,1.1,0,1.1l1.3,2.1l3.2,0.8L294.5,97.4z"/>
<path fill="#DDDDDD" d="M222.8,122.5l-0.4,1.4c0,0-0.4,0-0.4,0.8c0,0.8,0,0.8,0,0.8h1c0,0,0.6-1.2,0.8-0.6c0.2,0.6,0.4-0.6,0.2,0.6
	c-0.2,1.2,0-0.2-0.2,1.2c-0.2,1.4,0.6,2.6,0.6,2.6c0.6,1.2,1.8,2.4,1.8,2.4l0.8,0.6c0,0,0.2,0.2-0.2,0.8c-0.4,0.6,0.4,0.6,0.6,1.2
	c0.2,0.6,1-0.6,0.2,0.6c-0.8,1.2,0,0-0.8,1.2c-0.8,1.2,0.4,1.2-0.8,1.2c-1.2,0,0.4,0-1.2,0c-1.6,0-0.4,0-1.6,0c-1.2,0,0-0.6-1.2,0
	c-1.2,0.6-1.2,0.6-1.2,0.6l-0.2-1.6l0.2-1.2l-0.6-2.2l0.4-1.6v-1.2l-0.8-1.2l-0.8-0.6l-0.4-0.8l-0.6-1.8l1-1l1-0.4l1.2-1.2
	L222.8,122.5z"/>
<path fill="#DDDDDD" d="M218,130.1l0.2,2c0,0-0.4,0.2-0.2,0.8c0.2,0.6-0.2-0.2,0.2,0.6c0.4,0.8,0.4,0.8,0.4,0.8v0.3l-0.3,0.4
	c0,0-0.6,0-0.5,0.1c0.1,0.1,0.1,0.6,0.1,0.6l-0.9,0.1c0,0-0.3,0.2-0.3,0.3c0,0.1-0.2,0.4-0.3,0.5c-0.1,0-0.6,0.1-0.6,0.1l-0.6-0.1
	l-0.4,0l-0.9-0.3l0.6-0.7l0.5-0.5v-0.5l0.4-0.3l0.3-0.7l-0.4-0.1l-0.8-0.1l-0.6-0.1v-0.5l0.7,0l0.3-0.4c0,0,0-0.4,0.1-0.5
	c0.1,0,0.5,0,0.5,0l0.6,0l0.2-0.5l0.2-0.5l0.4-0.6L218,130.1z"/>
<path fill="#DDDDDD" d="M152.5,68.2l-0.2,2l-1.1,0.3c0,0,0.7,0.8-0.7,0.9c-1.3,0.1-1.6,0.7-2,0.7c-0.4,0-2.3,0.3-2.3,0.3l-0.1,0.9
	l-0.9,0.5c0,0-0.5-0.8-0.8-0.1c-0.3,0.7-0.7,0.5-1.1,0.9c-0.4,0.4-0.4,1.1-0.4,1.1s-0.1-0.8-1.1-0.4c-0.9,0.4-0.9,1.1-0.9,1.1
	l-1.1,0.4c0,0-0.7-0.7-1.5-0.7c-0.8,0-2,0.1-2.4,0.1c-0.4,0-0.5-1.2-0.4,0c0.1,1.2,0.3,1.5,1.1,1.5c0.8,0-0.1-0.7,0.8,0
	c0.9,0.7,1.3,0.3,1.3,0.7c0,0.4,1.2-0.7,0,0.4c-1.2,1.1-1.2,1.1-1.2,1.1s-0.3,1.1-0.7,0.7c-0.4-0.4-1.1-0.4-1.1-0.4l-1.7-0.1
	l-0.3,1.3c0,0,0.4,0.3-0.5,0.5c-0.9,0.3-2.1-1.2-0.9,0.3c1.2,1.5,1.2,1.5,1.2,1.5s-0.9,0.1-1.3,0.1c-0.4,0-0.7,0.1-1.2,0
	c-0.5-0.1,0.7,0.4-0.8,0.3c-1.5-0.1-1.5-0.1-1.5-0.1s-2.4-0.9-3.1-0.9c-0.7,0-0.5-0.7-0.7,0c-0.1,0.7,0,0.1-0.1,0.7
	c-0.1,0.5,1.6,0.4-1.1,0.7c-2.7,0.3-2.7,0.3-2.7,0.3s-5.2-1.1-0.5,0c4.7,1.1,2.9,0.9,4.7,1.1c1.7,0.1,3.3,0.1,3.3,0.1
	s0.1,0.1,0.5,0.3c0.4,0.1,2.4,0.3,2.4,0.3s1.9,0-0.1,0.8c-2,0.8-2.4,0.7-3.2,0.9c-0.8,0.3-1.3,0.4-2.1,0.4c-0.8,0-1.2,0.1-2.5,0.3
	c-1.3,0.1-1.1,0-2,0c-0.9,0-3.3-0.5-3.7-0.5c-0.4,0-0.4,0-0.4,0s0.8-0.8,0,0c-0.8,0.8,0-0.1,0,1.7c0,1.9,0.4,1.5-0.5,1.9
	c-0.9,0.4-1.2,0.7-2.1,0.8c-0.9,0.1-0.8-0.1-1.6-0.3c-0.8-0.1-1.5-1.5-1.5-1.5l-0.3-0.9l0.9-0.9L114,88l1.6-1.7l0.9-0.5l0.5-0.9
	v-1.5l0.5-0.7c0,0,0.7-1.1-0.4-1.6c-1.1-0.5-1.6-0.9-1.6-0.9s-0.4-0.1-0.9-0.7c-0.5-0.5-0.9-1.5-0.9-1.5l0.7-0.9
	c0,0,0.5-0.1-0.3-0.5c-0.8-0.4-0.8-0.4-0.8-0.4s-0.9-0.8-0.4-1.1c0.5-0.3,0.5-0.3,0.5-0.3l-0.7-1.1l-0.5-0.8l-0.5-0.7l1.1-0.4
	c0,0,1.3-1.6,2.3-0.9c0.9,0.7,0.4,0.7,0.8,1.7c0.4,1.1,0.4,1.1,0.4,1.1s0.7,0.1,1.2,0.8c0.5,0.7,1.1,0.7,1.1,0.7l0.8-0.5l0.1-1.2
	l-0.5-0.8l-0.7-0.8l-1.2-0.7c0,0-0.5,0.4,0.5-0.3c1.1-0.7,1.7-1.6,2-0.8c0.3,0.8,1.1,1.1,1.6,0.9c0.5-0.1,2.1-0.3,2.1-0.3l0.7-1.2
	c0,0-0.4-0.1,0.3-0.5c0.7-0.4,0-1.1,0.7-0.4c0.7,0.7,0.8,0.8,1.3,0.8c0.5,0,0.8,0.4,1.2,0.3c0.4-0.1,0.7-0.7,1.3-0.7
	c0.7,0-0.1,0.5,0.7,0c0.8-0.5-0.9-1.6,0.8-0.5c1.7,1.1,3.1,1.3,3.1,1.3s0.8-0.5,1.2-0.7C135,69,136,68,136,68l1.2-0.3
	c0,0-0.1-0.1,0.4-0.1c0.4,0,0.4,0,1,0.2c0.6,0.2,0.6,0.2,0.6,0.2l2.5-0.3l1.1-0.6c0,0,0.7,0.2,0.6,1c-0.1,0.8-0.1,0.8-0.1,0.8
	l0.5-0.1l1.3-1.1l0.3-0.2c0,0,0.3-0.5,0.9-0.4c0.5,0.1,0.7-0.3,1.1,0.3c0.4,0.6,0.4,0.6,0.4,0.6l1.1,0.3L152.5,68.2z"/>
<path fill="#DDDDDD" d="M95.9,78.4c0,0-0.3,0.3-0.9,1.1c-0.7,0.8-0.8-0.3-0.7,0.8c0.1,1.1,1.2,0.4,0.1,1.1c-1.1,0.7-1.7,0.5-2.1,0.7
	c-0.4,0.1-0.4,0.1-0.4,0.1l-1.3-0.8l0.8-0.5l1.1-1.1l1.1-0.9L95.9,78.4z"/>
<path fill="#DDDDDD" d="M114,80.5c0,0-0.4,0-1.4,0.1c-1,0.1-0.4-0.7-1,0.1c-0.6,0.9,0.6,1.1-0.6,0.9c-1.2-0.2-1.6-0.8-2-1
	c-0.4-0.2-0.4-0.2-0.4-0.2L108,79l1,0.2l1.5-0.1l1.4,0L114,80.5z"/>
<path fill="#DDDDDD" d="M96.1,82.9l0.7,1.3l1.3,0.3c0,0,0.9-0.3,0.8,0.1c-0.1,0.4,1.1,0,1.1,0s1.6-1.7,0.7-0.1
	c-0.9,1.6-0.5,0.8-0.9,1.6c-0.4,0.8-0.4,0.8-0.4,0.8s0.4,0.8-0.5,0.9c-0.9,0.1-1.7-0.1-2.3-0.1c-0.5,0-0.5,0-1.5,0
	c-0.9,0-0.9,0-0.9,0l-0.4-1.3l0.8-1.5L96.1,82.9z"/>
<path fill="#DDDDDD" d="M110.3,84.3l-1,1.1l0.2,1.4c0,0,0.6,0.8,0.1,0.8c-0.4,0,0.3,1,0.3,1s2.2,0.9,0.3,0.6
	c-1.8-0.4-0.9-0.2-1.8-0.4c-0.9-0.1-0.9-0.1-0.9-0.1s-0.6,0.6-1.1-0.2c-0.4-0.8-0.4-1.7-0.6-2.2c-0.2-0.5-0.2-0.5-0.5-1.4
	c-0.3-0.9-0.3-0.9-0.3-0.9l1.1-0.8l1.7,0.3L110.3,84.3z"/>
</svg>
