<?xml version="1.0" encoding="utf-8"?>
<!-- Generator: Adobe Illustrator 18.1.1, SVG Export Plug-In . SVG Version: 6.00 Build 0)  -->
<!DOCTYPE svg PUBLIC "-//W3C//DTD SVG 1.1//EN" "http://www.w3.org/Graphics/SVG/1.1/DTD/svg11.dtd">
<svg version="1.1" id="Layer_1" xmlns="http://www.w3.org/2000/svg" xmlns:xlink="http://www.w3.org/1999/xlink" x="0px" y="0px"
	 viewBox="0 0 315 278.1" enable-background="new 0 0 315 278.1" xml:space="preserve">
<g>
	<path fill="#CD343B" d="M158.2,52.5C180.3,20,204.8,3.8,231.6,3.8c13.2,0,24.9,2.7,35.3,8.1s19.3,12.4,26.8,20.8
		c7.1,8.9,12.4,19.1,15.9,30.4c3.5,11.3,5.3,23.1,5.3,35.3c0,39.5-52.2,97.9-156.7,175.1C52.7,195.8,0,137.4,0,98.4
		c0-11.8,1.8-23.3,5.3-34.6s8.8-21.4,15.9-30.4s15.9-16.1,26.5-21.5s22.9-8.1,37.1-8.1C110.1,3.8,134.6,20,158.2,52.5z"/>
</g>
</svg>
