<?xml version="1.0" encoding="utf-8"?>
<!-- Generator: Adobe Illustrator 18.1.1, SVG Export Plug-In . SVG Version: 6.00 Build 0)  -->
<!DOCTYPE svg PUBLIC "-//W3C//DTD SVG 1.1//EN" "http://www.w3.org/Graphics/SVG/1.1/DTD/svg11.dtd">
<svg version="1.1" id="Layer_1" xmlns="http://www.w3.org/2000/svg" xmlns:xlink="http://www.w3.org/1999/xlink" x="0px" y="0px"
	 viewBox="0 0 221.6 560" enable-background="new 0 0 221.6 560" xml:space="preserve">
<g>
	<g>
		<path fill="#FFFFFF" d="M156,130.6H62.4c-32.5,0-58.9,26.4-58.9,58.8v176.1c0,12.5,9,22.7,20,22.7c11.1,0,20-10.2,20-22.7V189.4
			h8.1v166.4V385v152.8c0,12.5,9,22.7,20,22.7c11.1,0,20-10.2,20-22.7V385h34.9v152.8c0,12.5,9,22.7,20,22.7c11.1,0,20-10.2,20-22.7
			V385v-29.2V189.4h8.1v176.1c0,12.5,9,22.7,20,22.7c11.1,0,20-10.2,20-22.7V189.4C214.9,156.9,188.6,130.6,156,130.6z"/>
	</g>
	<g>
		<path fill="#FFFFFF" d="M109.2,115.4c30,0,54.3-24.4,54.3-54.4c0-30-24.3-54.4-54.3-54.4C79.2,6.7,54.9,31,54.9,61
			C54.9,91.1,79.2,115.4,109.2,115.4z"/>
	</g>
</g>
</svg>
