<?xml version="1.0" encoding="utf-8"?>
<!-- Generator: Adobe Illustrator 18.1.1, SVG Export Plug-In . SVG Version: 6.00 Build 0)  -->
<!DOCTYPE svg PUBLIC "-//W3C//DTD SVG 1.1//EN" "http://www.w3.org/Graphics/SVG/1.1/DTD/svg11.dtd">
<svg version="1.1" id="Layer_1" xmlns="http://www.w3.org/2000/svg" xmlns:xlink="http://www.w3.org/1999/xlink" x="0px" y="0px"
	 viewBox="0 342.9 595.3 164" enable-background="new 0 342.9 595.3 164" xml:space="preserve">
<path fill="#FFFFFF" d="M472.1,495.9c-29.3,0-53.3-24-53.3-53.3c0-29.3,24-53.3,53.3-53.3c29.3,0,53.3,24,53.3,53.3
	C525.4,471.8,501.8,495.9,472.1,495.9 M472.1,399c-24,0-43.6,19.5-43.6,43.6s19.9,43.6,43.6,43.6c24,0,43.6-19.5,43.6-43.6
	S496.1,399,472.1,399z"/>
<path fill="#FFFFFF" d="M567.9,442.5h-9.8c0-47.3-38.3-85.6-85.6-85.6s-85.6,38.3-85.6,85.6h-9.8c0-52.6,42.8-95.4,95.4-95.4
	S567.9,390,567.9,442.5"/>
<path fill="#FFFFFF" d="M127.7,478.2c-19.2,0-34.9-15.8-34.9-35.3s16.1-35.7,34.9-35.7c19.2,0,34.9,15.8,34.9,35.3
	S146.8,478.2,127.7,478.2 M127.7,472.2c10.5,0,19.5-13.9,19.5-29.7s-9-29.3-19.5-29.3s-19.5,13.9-19.5,29.3
	C108.2,458.3,117.6,472.2,127.7,472.2z"/>
<path fill="#FFFFFF" d="M233.6,476.7h-25.2v-4.5h6.4l-6.4-16.9h-25.2l-6.8,17.3h7.5v4.5h-20.3v-4.5h5.6l26.7-66.1h8.3l25.5,66.1h3.8
	L233.6,476.7 M206.2,449.3l-9.8-25.9l-10.5,25.9H206.2z"/>
<path fill="#FFFFFF" d="M248.6,477.8H243v-18h5.6v6.8c4.5,3.8,8.3,4.9,13.1,4.9c6.4,0,10.9-3.8,10.9-9c0-4.5-3-7.9-12.8-14.3
	c-10.1-6.4-11.3-7.5-13.9-10.5c-2.6-3-3.8-7.1-3.8-11.6c0-11.3,9.8-18.8,22.5-18.8c4.1,0,7.1,0.8,11.3,2.3v-3h5.6v16.9H276V417
	c-4.5-2.6-7.1-3.8-10.9-3.8c-5.3,0-9.4,3.8-9.4,8.6c0,4.1,2.3,6.8,12.4,13.1c4.9,3,7.9,4.9,9,5.6c2.3,1.5,4.5,3.8,6.4,6.8
	c1.9,3.4,3,6.8,3,10.5c0,11.6-8.6,19.9-20.7,19.9c-6,0-12-1.1-16.5-4.1v4.1"/>
<polyline fill="#FFFFFF" points="77,477.8 68,477.8 31.9,427.1 31.9,472.6 40.2,472.6 40.2,476.7 16.1,476.7 16.1,472.6 24.8,472.6 
	24.8,418.1 21.4,412.9 14.3,412.9 14.3,408.7 36.4,408.7 70.2,456.1 70.2,412.9 62,412.9 62,408.7 85.6,408.7 85.6,412.9 77,412.9 
	77,477.8 "/>
</svg>
