<?xml version="1.0" encoding="utf-8"?>
<!-- Generator: Adobe Illustrator 18.1.1, SVG Export Plug-In . SVG Version: 6.00 Build 0)  -->
<!DOCTYPE svg PUBLIC "-//W3C//DTD SVG 1.1//EN" "http://www.w3.org/Graphics/SVG/1.1/DTD/svg11.dtd">
<svg version="1.1" id="Layer_1" xmlns="http://www.w3.org/2000/svg" xmlns:xlink="http://www.w3.org/1999/xlink" x="0px" y="0px"
	 viewBox="0 373.9 595.3 124.1" enable-background="new 0 373.9 595.3 124.1" xml:space="preserve">
<path fill="#FFFFFF" d="M194.6,484.8h-13.7v-2.1h3.2v-18.4h-3.7v-1.6l3.7-1.1v-4.2c0-4.2,1.1-6.8,4.7-8.9c2.1-1.6,4.2-2.1,7.4-2.1
	s5.3,0.5,7.9,2.1l-3.7,4.2c-2.1-2.1-2.6-2.6-5.8-4.2c-3.7,1.1-4.2,2.1-4.2,10v3.7h5.3v2.6h-5.3v18.4h4.2V484.8"/>
<path fill="#FFFFFF" d="M197.7,472.7c0-7.4,5.3-12.6,12.1-12.6c6.8,0,12.1,5.3,12.1,12.6s-5.3,12.6-12.1,12.6
	C203,485.4,197.7,480.1,197.7,472.7 M204.6,472.7c0,5.8,2.1,10,5.3,10c3.2,0,5.8-4.2,5.8-10c0-5.8-2.1-10-5.8-10
	C207.2,462.8,204.6,467,204.6,472.7z"/>
<path fill="#FFFFFF" d="M238.2,484.8h-13.1v-2.1h3.2v-18.4h-3.7v-1.6l7.9-2.1h2.1v4.2l1.1-1.6c2.1-2.1,3.2-2.6,4.7-2.6
	c1.1,0,1.6,0,1.6,0.5l1.6,1.6l-3.2,4.7c-1.6-1.1-2.1-1.6-2.6-1.6c-1.1,0-2.1,0.5-3.2,2.6v14.7h3.7L238.2,484.8"/>
<path fill="#FFFFFF" d="M280.3,483.8l-3.7,1.1c-1.1,0.5-1.6,0.5-2.6,0.5c-2.1,0-3.2-1.1-3.2-3.2c-1.6,2.1-3.7,3.2-6.3,3.2
	c-4.2,0-6.8-2.6-6.8-6.3c0-3.2,2.1-5.3,5.3-6.3l7.9-1.6v-5.8c0-2.6-0.5-3.7-2.6-3.7c-1.1,0-1.6,0-2.6,0.5v2.6l-5.8,1.6
	c-0.5-0.5-0.5-1.1-0.5-1.6c0-3.2,3.7-5.3,8.9-5.3c5.8,0,8.9,2.1,8.9,5.8v16.3h3.2L280.3,483.8 M270.8,474.3l-6.8,1.6v3.2
	c0,2.1,1.1,3.7,2.6,3.7c1.1,0,2.6-0.5,4.2-2.1V474.3z"/>
<path fill="#FFFFFF" d="M285.5,485.4h-2.6V478h3.2v1.6c0,2.1,3.2,4.2,6.3,4.2c2.6,0,4.2-1.1,4.2-2.6c0-2.1-1.6-3.2-6.3-5.3
	c-5.3-2.1-6.8-4.2-6.8-7.9c0-4.2,3.2-7.4,8.4-7.4c2.6,0,4.2,0.5,5.8,1.6l0.5-2.1h2.6l-1.6,7.9h-2.6c0-0.5,0.5-1.1,0.5-1.6
	c0-1.6-2.6-3.7-5.3-3.7c-2.1,0-3.7,1.1-3.7,3.2c0,2.1,1.1,2.6,6.3,4.7c5.3,2.1,6.8,4.2,6.8,7.9c0,4.7-3.2,7.4-8.4,7.4
	c-3.2,0-5.3-0.5-6.8-2.1v1.6"/>
<path fill="#FFFFFF" d="M326,463.3h-2.1l-8.9,22.6c-1.6,3.7-3.2,7.4-4.7,9.5c-0.5,0.5-1.1,1.6-2.1,2.6l-3.7-3.7
	c3.2-1.6,4.2-2.6,5.8-4.7c1.6-1.6,2.1-3.2,3.2-5.8l-8.4-21h-2.1v-2.1h11v2.1h-2.6l5.3,12.6l4.7-12.6h-3.2v-2.1h7.9V463.3"/>
<polyline fill="#FFFFFF" points="338.7,484.8 326.6,484.8 326.6,482.7 329.7,482.7 329.7,449.6 326,449.6 326,448 333.4,445.9 
	335.5,445.9 335.5,482.7 338.7,482.7 338.7,484.8 "/>
<path fill="#FFFFFF" d="M344.4,485.4h-2.6V478h3.2v1.6c0,2.1,3.2,4.2,6.3,4.2c2.6,0,4.2-1.1,4.2-2.6c0-2.1-1.6-3.2-6.3-5.3
	c-5.3-2.1-6.8-4.2-6.8-7.9c0-4.2,3.2-7.4,8.4-7.4c2.6,0,4.2,0.5,5.8,1.6l0.5-2.1h2.6l-1.6,7.9h-2.6c0-0.5,0.5-1.1,0.5-1.6
	c0-1.6-2.6-3.7-5.3-3.7c-2.1,0-3.7,1.1-3.7,3.2c0,2.1,1.1,2.6,6.3,4.7c5.3,2.1,6.8,4.2,6.8,7.9c0,4.7-3.2,7.4-8.4,7.4
	c-3.2,0-5.3-0.5-6.8-2.1v1.6"/>
<path fill="#FFFFFF" d="M365,486.9l-2.1-1.6l3.2-3.7c-2.1-2.6-3.2-5.3-3.2-8.9c0-7.4,5.3-12.6,12.1-12.6c2.6,0,5.3,0.5,7.4,2.1
	l3.7-4.2l2.1,1.6l-3.7,4.2c2.1,2.6,3.2,5.3,3.2,8.4c0,7.4-5.3,12.6-12.6,12.6c-2.6,0-5.3-0.5-7.4-2.1L365,486.9 M370.2,476.9
	l9.5-10.5c-1.1-2.1-2.6-3.2-4.2-3.2c-3.2,0-5.8,4.2-5.8,10C369.7,474.3,369.7,474.8,370.2,476.9z M371.3,479.6
	c1.6,2.6,2.6,3.2,4.2,3.2c3.2,0,5.8-4.2,5.8-10c0-1.6,0-2.1-0.5-4.2L371.3,479.6z"/>
<path fill="#FFFFFF" d="M402.3,484.8h-12.6v-2.1h3.2v-33.7h-3.7v-1.6l7.9-2.1h2.1v36.8h3.2V484.8 M416,484.8h-8.4l-7.9-12.1l8.4-9.5
	h-3.2v-2.1h10.5v2.1h-3.2l-6.8,7.4l7.9,12.1h2.1v2.1H416z"/>
<path fill="#FFFFFF" d="M439.1,482.2c-5.3,3.2-6.8,3.7-10.5,3.7c-7.4,0-12.1-5.3-12.1-12.6c0-7.9,4.7-12.6,12.1-12.6
	c6.3,0,10,3.7,10,9.5v2.1h-15.8c0,6.8,3.2,10.5,7.9,10.5c2.1,0,3.2-0.5,7.4-2.6L439.1,482.2 M432.3,469.1V468c0-3.2-1.6-5.3-3.7-5.3
	c-2.6,0-5.3,2.6-5.3,6.8h8.9V469.1z"/>
<path fill="#FFFFFF" d="M454.9,484.8h-13.1v-2.1h3.2v-18.4h-3.7v-1.6l7.9-2.1h2.1v4.2l1.1-1.6c2.1-2.1,3.2-2.6,4.7-2.6
	c1.1,0,1.6,0,1.6,0.5l1.6,1.6l-3.2,4.7c-1.6-1.1-2.1-1.6-2.6-1.6c-1.1,0-2.1,0.5-3.2,2.6v14.7h3.7L454.9,484.8"/>
<path fill="#FFFFFF" d="M483.8,482.2c-5.3,3.2-6.8,3.7-10.5,3.7c-7.4,0-11.6-5.3-11.6-12.6c0-7.9,4.7-12.6,12.1-12.6
	c6.3,0,10,3.7,10,9.5v2.1H468c0,6.8,3.2,10.5,7.9,10.5c2.1,0,3.2-0.5,7.4-2.6L483.8,482.2 M477,469.1V468c0-3.2-1.6-5.3-3.7-5.3
	c-2.6,0-5.3,2.6-5.3,6.8h8.9V469.1z"/>
<polyline fill="#FFFFFF" points="85.7,425.9 82,425.9 63.6,399.6 63.6,422.8 67.8,422.8 67.8,425.4 55.7,425.4 55.7,422.8 
	59.9,422.8 59.9,394.9 58.4,392.3 54.7,392.3 54.7,390.2 65.2,390.2 82,414.9 82,392.3 77.8,392.3 77.8,390.2 89.9,390.2 
	89.9,392.3 85.7,392.3 85.7,425.9 "/>
<path fill="#FFFFFF" d="M91.5,413.3c0-7.4,5.3-12.6,12.1-12.6s12.1,5.3,12.1,12.6s-5.3,12.6-12.1,12.6S91.5,420.7,91.5,413.3
	 M98.3,413.3c0,5.8,2.1,10,5.3,10s5.8-4.2,5.8-10c0-5.8-2.1-10-5.8-10C101,403.3,98.3,407,98.3,413.3z"/>
<path fill="#FFFFFF" d="M132.5,425.4h-13.1v-2.6h3.2v-18.4h-3.7v-1.6l7.9-2.1h2.1v4.2l1.1-1.6c2.1-2.1,3.2-2.6,4.7-2.6
	c1.1,0,1.6,0,1.6,0.5l1.6,1.6l-3.2,4.2c-1.6-1.1-2.1-1.6-2.6-1.6c-1.1,0-2.1,0.5-3.2,2.6v14.7h3.7V425.4"/>
<path fill="#FFFFFF" d="M143,425.9h-2.6v-7.4h3.2v1.6c0,2.1,3.2,4.2,6.3,4.2c2.6,0,4.2-1.1,4.2-2.6c0-2.1-1.6-3.2-6.3-5.3
	c-5.3-2.1-6.8-4.2-6.8-7.9c0-4.2,3.2-7.4,8.4-7.4c2.6,0,4.2,0.5,5.8,1.6l0.5-2.1h2.1l-1.6,7.9h-2.6c0-0.5,0.5-1.1,0.5-1.6
	c0-1.6-2.6-3.7-5.3-3.7c-2.1,0-3.7,1.1-3.7,3.2s1.1,2.6,6.3,4.7s6.8,4.2,6.8,7.9c0,4.7-3.2,7.4-8.4,7.4c-3.2,0-5.3-0.5-6.8-2.1
	V425.9"/>
<path fill="#FFFFFF" d="M174.1,425.4h-12.6v-2.6h3.2v-33.1h-3.7v-1.6l7.9-2.1h2.1v36.8h3.2V425.4 M187.2,425.4h-8.4l-7.9-12.1
	l8.4-9.5h-3.2v-2.1h10.5v2.1h-3.2l-6.8,7.4l7.9,12.1h2.1v2.1H187.2z"/>
<path fill="#FFFFFF" d="M201.9,413.3c0-7.4,5.3-12.6,12.1-12.6c6.8,0,12.1,5.3,12.1,12.6s-5.3,12.6-12.1,12.6
	C207.2,425.9,201.9,420.7,201.9,413.3 M208.8,413.3c0,5.8,2.1,10,5.3,10c3.2,0,5.8-4.2,5.8-10c0-5.8-2.1-10-5.8-10
	C210.9,403.3,208.8,407,208.8,413.3z"/>
<path fill="#FFFFFF" d="M242.4,425.4h-13.1v-2.6h3.2v-18.4h-3.7v-1.6l7.9-2.1h2.1v4.2l1.1-1.6c2.1-2.1,3.2-2.6,4.7-2.6
	c1.1,0,1.6,0,1.6,0.5l1.6,1.6l-3.2,4.2c-1.6-1.1-2.1-1.6-2.6-1.6c-1.1,0-2.1,0.5-3.2,2.6v14.7h3.7L242.4,425.4"/>
<path fill="#FFFFFF" d="M274.5,404.9h-4.2c1.1,1.6,1.6,2.6,1.6,4.7c0,5.8-4.2,9.5-10.5,9.5c-1.6,0-2.1,0-3.7-0.5
	c-1.6,1.6-2.1,2.6-2.1,3.2c0,0.5,0.5,1.1,1.6,1.1h13.1c3.2,0,4.7,1.6,4.7,4.7c0,6.3-5.8,11-13.7,11c-5.3,0-8.9-1.6-11.6-5.3
	c1.1-2.1,1.6-3.2,3.2-4.7c0.5-0.5,1.1-1.1,1.6-2.1c-2.1-0.5-3.7-1.1-5.3-2.6c2.6-3.7,3.2-4.2,5.8-6.8c-3.2-2.1-4.7-4.2-4.7-7.4
	c0-5.8,4.2-9.5,10.5-9.5c2.6,0,4.7,0.5,6.8,1.6h3.7l3.7-1.1v4.2 M256.6,427.5c-1.1,2.1-1.6,2.6-1.6,3.7c0,3.2,2.6,5.3,6.3,5.3
	c4.2,0,7.4-3.2,7.4-6.8c0-1.6-0.5-2.1-2.6-2.1H256.6L256.6,427.5z M265,409.6c0-4.2-1.6-6.8-4.2-6.8c-2.6,0-4.2,2.6-4.2,6.8
	c0,4.2,1.6,6.8,4.2,6.8C263.5,416.5,265,413.8,265,409.6z"/>
<path fill="#FFFFFF" d="M298.2,424.4l-3.7,1.1c-1.1,0.5-1.6,0.5-2.6,0.5c-2.1,0-3.2-1.1-3.2-3.2c-1.6,2.1-3.7,3.2-6.3,3.2
	c-4.2,0-6.8-2.6-6.8-6.3c0-3.2,2.1-5.3,5.3-6.3l7.9-1.6V406c0-2.6-0.5-3.7-2.6-3.7c-1.1,0-1.6,0-2.6,0.5v2.6l-5.8,1.6
	c-0.5-0.5-0.5-1.1-0.5-1.6c0-3.2,3.7-5.3,8.9-5.3c5.8,0,8.9,2.1,8.9,5.8v16.3h3.2V424.4 M289.2,414.4l-6.8,1.6v3.2
	c0,2.1,1.1,3.7,2.6,3.7c1.1,0,2.6-0.5,4.2-2.1V414.4z"/>
<path fill="#FFFFFF" d="M329.2,425.4h-12.6v-2.6h3.2v-14.7c0-3.2-0.5-4.2-2.6-4.2c-2.1,0-3.2,0.5-6.3,3.7v15.3h3.2v2.1h-12.6v-2.1
	h3.2v-18.4h-3.7v-1.6l7.9-2.1h2.1v4.2c3.7-3.7,5.3-4.2,8.4-4.2c4.7,0,6.8,2.1,6.8,6.8v15.8h3.2L329.2,425.4"/>
<path fill="#FFFFFF" d="M344.4,425.4h-12.6v-2.6h3.2v-18.4h-3.7v-1.6l7.9-2.1h2.1v22.1h3.2V425.4 M337.6,387.6
	c2.1,0,3.7,1.6,3.7,3.7c0,2.1-1.6,3.7-3.7,3.7c-2.1,0-3.7-1.6-3.7-3.7C333.9,389.7,335.5,387.6,337.6,387.6z"/>
<path fill="#FFFFFF" d="M350.2,425.9h-2.6v-7.4h3.2v1.6c0,2.1,3.2,4.2,6.3,4.2c2.6,0,4.2-1.1,4.2-2.6c0-2.1-1.6-3.2-6.3-5.3
	c-5.3-2.1-6.8-4.2-6.8-7.9c0-4.2,3.2-7.4,8.4-7.4c2.6,0,4.2,0.5,5.8,1.6l0.5-2.1h2.6l-1.6,7.9h-2.6c0-0.5,0.5-1.1,0.5-1.6
	c0-1.6-2.6-3.7-5.3-3.7c-2.1,0-3.7,1.1-3.7,3.2s1.1,2.6,6.3,4.7c5.3,2.1,6.8,4.2,6.8,7.9c0,4.7-3.2,7.4-8.4,7.4
	c-3.2,0-5.3-0.5-6.8-2.1v1.6"/>
<path fill="#FFFFFF" d="M390.7,424.4l-3.7,1.1c-1.1,0.5-1.6,0.5-2.6,0.5c-2.1,0-3.2-1.1-3.2-3.2c-1.6,2.1-3.7,3.2-6.3,3.2
	c-4.2,0-6.8-2.6-6.8-6.3c0-3.2,2.1-5.3,5.3-6.3l7.9-1.6V406c0-2.6-0.5-3.7-2.6-3.7c-1.1,0-1.6,0-2.6,0.5v2.6l-5.8,1.6
	c-0.5-0.5-0.5-1.1-0.5-1.6c0-3.2,3.7-5.3,8.9-5.3c5.8,0,8.9,2.1,8.9,5.8v16.3h3.2V424.4 M381.3,414.4l-6.8,1.6v3.2
	c0,2.1,1.1,3.7,2.6,3.7c1.1,0,2.6-0.5,4.2-2.1V414.4z"/>
<path fill="#FFFFFF" d="M397,425.9h-2.6v-7.4h3.2v1.6c0,2.1,3.2,4.2,6.3,4.2c2.6,0,4.2-1.1,4.2-2.6c0-2.1-1.6-3.2-6.3-5.3
	c-5.3-2.1-6.8-4.2-6.8-7.9c0-4.2,3.2-7.4,8.4-7.4c2.6,0,4.2,0.5,5.8,1.6l0.5-2.1h2.6l-2.1,7.4h-2.6c0-0.5,0.5-1.1,0.5-1.6
	c0-1.6-2.6-3.7-5.3-3.7c-2.1,0-3.7,1.1-3.7,3.2s1.1,2.6,6.3,4.7c5.3,2.1,6.8,4.2,6.8,7.9c0,4.7-3.2,7.4-8.4,7.4
	c-3.2,0-5.3-0.5-6.8-2.1V425.9"/>
<path fill="#FFFFFF" d="M424.9,428c-2.1,4.7-2.6,5.3-7.9,10.5l-1.6-1.6c3.2-3.7,3.2-4.7,3.2-10v-22.6h-3.7v-1.6l7.9-2.1h2.1V428
	 M421.7,387.6c2.1,0,3.7,1.6,3.7,3.7c0,2.1-1.6,3.7-3.7,3.7c-2.1,0-3.7-1.6-3.7-3.7C418.1,389.7,419.6,387.6,421.7,387.6z"/>
<path fill="#FFFFFF" d="M429.6,413.3c0-7.4,5.3-12.6,12.1-12.6c7.4,0,12.1,5.3,12.1,12.6s-5.3,12.6-12.1,12.6
	C434.4,425.9,429.6,420.7,429.6,413.3 M435.9,413.3c0,5.8,2.1,10,5.3,10c3.2,0,5.3-4.2,5.3-10c0-5.8-2.1-10-5.3-10
	C438.6,403.3,435.9,407,435.9,413.3z"/>
<path fill="#FFFFFF" d="M484.8,425.4h-12.6v-2.6h3.2v-14.7c0-3.2-0.5-4.2-2.6-4.2c-2.1,0-3.2,0.5-6.3,3.7v15.3h3.2v2.1H457v-2.1h3.2
	v-18.4h-3.7v-1.6l7.9-2.1h2.1v4.2c3.7-3.7,5.3-4.2,8.4-4.2c4.7,0,6.8,2.1,6.8,6.8v15.8h3.2V425.4"/>
<rect x="538.5" y="381.8" fill="#FFFFFF" width="3.7" height="111.5"/>
</svg>
